<svg width="209" height="209" viewBox="0 0 209 209" fill="none" xmlns="http://www.w3.org/2000/svg">
<path d="M166.694 21.5768C180.914 21.5768 195.133 23.561 208.361 27.5292V71.5104C195.464 66.2194 181.575 63.2432 166.694 63.2432C105.517 63.2432 55.9146 112.846 55.9146 174.023C55.9146 186.258 57.8987 197.832 61.5362 208.745H18.2164C15.5709 197.502 14.2482 185.928 14.2482 174.023C14.2482 141.946 24.1687 111.193 42.6871 85.3991C34.7507 82.0923 27.1449 77.132 20.8619 70.5183C7.63446 57.6216 0.359375 40.0952 0.359375 21.5768C0.359375 14.6324 1.68212 7.68804 3.66623 0.743652H48.9702C43.6792 6.03461 42.0258 14.3018 42.0258 21.5768C42.0258 29.1826 45.0019 36.127 50.2929 41.418C59.5521 50.6772 74.4329 52.3306 85.0149 45.3862C109.155 29.844 137.263 21.5768 166.694 21.5768Z" fill="url(#paint0_linear_353_2193)"/>
<path d="M180.902 134.393C180.902 141.018 178.749 147.145 174.94 152.279C178.749 158.241 180.902 165.196 180.902 172.483C180.902 192.521 164.672 208.916 144.468 208.916C137.678 208.916 134.698 208.419 128.901 205.438V184.572C132.213 187.553 137.182 188.05 142.812 188.05C153.411 188.05 160.201 181.094 160.201 172.483C160.201 167.515 157.882 163.043 154.073 160.062C151.093 157.91 149.437 154.266 149.768 150.623C150.099 146.98 152.252 143.667 155.564 142.011C158.379 140.521 160.201 137.54 160.201 134.393C160.201 129.591 156.558 125.616 150.761 125.616C145.959 125.616 141.984 127.438 137.513 131.247V108.228C140.825 105.909 144.965 104.75 151.424 104.75C167.819 104.75 180.902 117.998 180.902 134.393Z" fill="url(#paint1_linear_353_2193)"/>
<defs>
<linearGradient id="paint0_linear_353_2193" x1="104.36" y1="0.743652" x2="104.36" y2="208.745" gradientUnits="userSpaceOnUse">
<stop stop-color="#F48634"/>
<stop offset="1" stop-color="#C54A2A"/>
</linearGradient>
<linearGradient id="paint1_linear_353_2193" x1="154.902" y1="104.75" x2="154.902" y2="208.916" gradientUnits="userSpaceOnUse">
<stop stop-color="#F48634"/>
<stop offset="1" stop-color="#C54A2A"/>
</linearGradient>
</defs>
</svg>
