<svg width="1732" height="1121" viewBox="0 0 1732 1121" fill="none" xmlns="http://www.w3.org/2000/svg">
<g clip-path="url(#clip0_778_217)">
<rect x="2" y="2" width="1728" height="1117" rx="16" fill="#252525"/>
<path d="M81.7226 995.17C81.7226 980.61 92.2971 969.116 105.63 969.116L165.092 969.116C178.426 969.116 189 980.61 189 995.17L189 1031.95L81.7226 1031.95L81.7226 995.17ZM165.092 990.572L105.63 990.572C99.6532 990.572 98.5804 991.798 98.5804 998.235L98.5805 1010.49L172.142 1010.49L172.142 998.235C172.142 991.798 171.069 990.572 165.092 990.572ZM115.438 932.118C115.438 914.187 124.94 902.846 140.265 902.846L189 902.846L189 923.535L174.594 920.317L174.594 923.689C183.789 923.689 189.613 930.892 189.613 942.539C189.613 954.493 180.878 962.002 167.085 962.002C152.832 962.002 143.79 950.661 143.79 932.577C143.79 929.206 144.097 925.681 144.556 923.689L140.265 923.689C132.756 923.689 131.377 925.528 131.377 935.183C131.377 943.458 133.369 952.194 136.587 957.864L118.503 953.726C116.664 948.822 115.438 940.547 115.438 932.118ZM173.675 932.424C173.675 924.608 172.908 923.689 165.552 923.689C158.196 923.689 157.43 924.608 157.43 932.424C157.43 940.24 158.196 941.16 165.552 941.16C172.908 941.16 173.675 940.24 173.675 932.424ZM115.438 854.619C115.438 843.279 124.634 836.229 139.346 836.229L189 836.229L189 857.071L152.526 857.071C133.522 857.071 131.377 857.838 131.377 865.041C131.377 872.243 133.522 873.01 152.526 873.01L189 873.01L189 893.852L116.051 893.852L116.051 873.01L130.457 873.01L130.457 869.638C121.262 869.638 115.438 863.815 115.438 854.619ZM107.009 815.477C107.009 822.067 103.025 826.205 96.5881 826.205C90.1515 826.205 86.1669 822.067 86.1669 815.477C86.1669 808.888 90.1515 804.75 96.5881 804.75C103.025 804.75 107.009 808.888 107.009 815.477ZM189 805.056L189 825.899L116.051 825.899L116.051 805.056L189 805.056ZM116.051 770.733L116.051 760.925C116.051 746.213 125.093 737.018 139.346 737.018L146.855 737.018L160.495 737.937L160.495 773.952L164.786 773.952C172.755 773.952 173.675 772.726 173.675 762.304C173.675 753.722 171.682 744.834 168.464 739.163L186.548 743.301C188.387 748.205 189.613 756.634 189.613 765.37C189.613 783.453 180.111 794.794 164.786 794.794L139.346 794.794C125.093 794.794 116.051 785.446 116.051 770.733ZM146.855 773.952L146.855 757.86L141.338 757.86C132.909 757.86 131.99 758.626 131.99 766.136C131.99 772.419 133.522 773.645 146.855 773.952ZM189 708.083L189 728.925L81.7226 728.925L81.7226 708.083L189 708.083Z" fill="#D9D9D9"/>
<path d="M230.187 966.205L285.205 987.354L337.464 965.438L337.464 988.733L294.86 1006.51L294.86 1010.49L337.464 1010.49L337.464 1031.95L230.187 1031.95L230.187 1010.49L278.002 1010.49L278.002 1006.51L230.187 989.039L230.187 966.205ZM263.903 934.063C263.903 916.133 273.404 904.792 288.73 904.792L337.464 904.792L337.464 925.481L323.059 922.263L323.059 925.634C332.254 925.634 338.077 932.837 338.077 944.485C338.077 956.438 329.342 963.948 315.549 963.948C301.297 963.948 292.255 952.607 292.255 934.523C292.255 931.151 292.561 927.627 293.021 925.634L288.73 925.634C281.22 925.634 279.841 927.473 279.841 937.128C279.841 945.404 281.833 954.139 285.052 959.81L266.968 955.672C265.129 950.768 263.903 942.492 263.903 934.063ZM322.139 934.37C322.139 926.554 321.373 925.634 314.017 925.634C306.66 925.634 305.894 926.554 305.894 934.37C305.894 942.186 306.66 943.105 314.017 943.105C321.373 943.105 322.139 942.186 322.139 934.37ZM263.903 856.565C263.903 845.224 273.098 838.175 287.81 838.175L337.464 838.175L337.464 859.017L300.99 859.017C281.987 859.017 279.841 859.783 279.841 866.986C279.841 874.189 281.987 874.955 300.99 874.955L337.464 874.955L337.464 895.798L264.516 895.798L264.516 874.955L278.922 874.955L278.922 871.584C269.726 871.584 263.903 865.76 263.903 856.565ZM278.922 793.334L264.516 793.334L264.516 772.491L337.464 772.491C352.79 772.491 362.291 783.679 362.291 801.303C362.291 809.578 361.065 817.701 359.226 822.452L341.142 826.59C344.361 820.919 346.353 812.337 346.353 804.368C346.353 795.019 344.974 793.334 337.464 793.334L323.059 793.334L323.059 796.705C332.254 796.705 338.077 802.529 338.077 811.724C338.077 823.065 328.882 830.114 314.17 830.114L287.81 830.114C273.098 830.114 263.903 823.065 263.903 811.724C263.903 802.529 269.726 796.705 278.922 796.705L278.922 793.334ZM322.139 801.303C322.139 794.1 319.993 793.334 300.99 793.334C281.987 793.334 279.841 794.1 279.841 801.303C279.841 808.506 281.987 809.272 300.99 809.272C319.993 809.272 322.139 808.506 322.139 801.303Z" fill="#D9D9D9"/>
<rect x="564.495" y="244.387" width="600" height="600" fill="#D9D9D9"/>
<rect x="1428.49" y="121.103" width="800" height="800" fill="#D9D9D9"/>
<rect x="-100.505" y="360.5" width="401" height="400" fill="#D9D9D9"/>
<path d="M416.464 1038.79L416.384 1038.79L406.064 1035.4L406.064 1033L416.384 1029.61L416.464 1029.61L416.464 1031.17L407.224 1034.09L407.224 1034.41L416.464 1037.33L416.464 1038.79ZM413.438 1036.59L412.184 1036.17L412.184 1032.33L413.438 1031.92L413.438 1036.59ZM419.131 1025.06L408.464 1025.06L408.464 1023.78L409.504 1023.78L409.504 1023.46C409.184 1023.31 408.9 1023.06 408.651 1022.7C408.393 1022.33 408.264 1021.84 408.264 1021.23C408.264 1020.55 408.438 1019.96 408.784 1019.48C409.122 1019 409.607 1018.64 410.238 1018.39C410.869 1018.13 411.611 1018 412.464 1018C413.309 1018 414.047 1018.13 414.678 1018.39C415.309 1018.64 415.798 1019 416.144 1019.48C416.491 1019.95 416.664 1020.53 416.664 1021.2C416.664 1021.75 416.558 1022.19 416.344 1022.52C416.131 1022.86 415.851 1023.12 415.504 1023.3L415.504 1023.62L419.131 1023.62L419.131 1025.06ZM415.464 1021.48C415.464 1020.83 415.202 1020.34 414.678 1019.99C414.153 1019.64 413.415 1019.47 412.464 1019.47C411.513 1019.47 410.775 1019.64 410.251 1019.99C409.727 1020.34 409.464 1020.83 409.464 1021.48C409.464 1022.15 409.74 1022.68 410.291 1023.07C410.842 1023.46 411.567 1023.66 412.464 1023.66C413.362 1023.66 414.087 1023.46 414.638 1023.07C415.189 1022.68 415.464 1022.15 415.464 1021.48ZM416.464 1016.26L405.798 1016.26L405.798 1014.82L409.504 1014.82L409.504 1014.5C409.104 1014.3 408.798 1014.04 408.584 1013.7C408.371 1013.36 408.264 1012.94 408.264 1012.42C408.264 1011.5 408.553 1010.84 409.131 1010.42C409.7 1009.99 410.433 1009.78 411.331 1009.78L416.464 1009.78L416.464 1011.22L411.638 1011.22C410.944 1011.22 410.415 1011.34 410.051 1011.59C409.678 1011.84 409.491 1012.23 409.491 1012.75C409.491 1013.4 409.749 1013.91 410.264 1014.27C410.771 1014.64 411.402 1014.82 412.158 1014.82L416.464 1014.82L416.464 1016.26ZM416.664 1004.53C416.664 1005.75 416.287 1006.66 415.531 1007.25C414.767 1007.84 413.744 1008.13 412.464 1008.13C411.184 1008.13 410.167 1007.84 409.411 1007.25C408.647 1006.66 408.264 1005.75 408.264 1004.53C408.264 1003.32 408.647 1002.41 409.411 1001.83C410.167 1001.23 411.184 1000.93 412.464 1000.93C413.744 1000.93 414.767 1001.23 415.531 1001.83C416.287 1002.41 416.664 1003.32 416.664 1004.53ZM415.491 1004.53C415.491 1003.8 415.22 1003.26 414.678 1002.92C414.135 1002.57 413.398 1002.4 412.464 1002.4C411.531 1002.4 410.793 1002.57 410.251 1002.92C409.709 1003.26 409.438 1003.8 409.438 1004.53C409.438 1005.27 409.709 1005.81 410.251 1006.16C410.793 1006.5 411.531 1006.67 412.464 1006.67C413.398 1006.67 414.135 1006.5 414.678 1006.16C415.22 1005.81 415.491 1005.27 415.491 1004.53ZM416.464 998.181C416.224 998.377 415.935 998.537 415.598 998.661C415.26 998.777 414.753 998.835 414.078 998.835L409.584 998.835L409.584 999.928L408.464 999.928L408.464 998.808L406.464 998.808L406.464 997.421L408.464 997.421L408.464 996.061L409.584 996.061L409.584 997.395L413.851 997.395C414.58 997.395 415.127 997.319 415.491 997.168C415.847 997.008 416.144 996.817 416.384 996.595L416.464 996.595L416.464 998.181ZM416.664 991.456C416.664 992.674 416.287 993.581 415.531 994.176C414.767 994.763 413.744 995.056 412.464 995.056C411.184 995.056 410.167 994.763 409.411 994.176C408.647 993.581 408.264 992.674 408.264 991.456C408.264 990.238 408.647 989.336 409.411 988.75C410.167 988.154 411.184 987.856 412.464 987.856C413.744 987.856 414.767 988.154 415.531 988.75C416.287 989.336 416.664 990.238 416.664 991.456ZM415.491 991.456C415.491 990.718 415.22 990.181 414.678 989.843C414.135 989.496 413.398 989.323 412.464 989.323C411.531 989.323 410.793 989.496 410.251 989.843C409.709 990.181 409.438 990.718 409.438 991.456C409.438 992.194 409.709 992.736 410.251 993.083C410.793 993.421 411.531 993.59 412.464 993.59C413.398 993.59 414.135 993.421 414.678 993.083C415.22 992.736 415.491 992.194 415.491 991.456ZM419.318 983.09C419.318 983.659 419.247 984.139 419.104 984.53C418.962 984.921 418.775 985.241 418.544 985.49C418.322 985.739 418.078 985.926 417.811 986.05C417.544 986.174 417.282 986.254 417.024 986.29L417.024 984.85C417.327 984.797 417.598 984.628 417.838 984.343C418.078 984.059 418.198 983.619 418.198 983.023C418.198 982.383 418.02 981.89 417.664 981.543C417.309 981.188 416.735 981.01 415.944 981.01L415.051 981.01L415.051 981.33C415.407 981.472 415.704 981.717 415.944 982.063C416.175 982.401 416.291 982.863 416.291 983.45C416.291 984.437 415.931 985.219 415.211 985.797C414.491 986.366 413.504 986.65 412.251 986.65C411.433 986.65 410.727 986.526 410.131 986.277C409.535 986.019 409.078 985.654 408.758 985.183C408.429 984.703 408.264 984.134 408.264 983.477C408.264 982.863 408.389 982.392 408.638 982.063C408.887 981.726 409.175 981.481 409.504 981.33L409.504 981.01L408.464 981.01L408.464 979.73L416.024 979.73C417.091 979.73 417.904 980.019 418.464 980.597C419.033 981.174 419.318 982.006 419.318 983.09ZM415.091 983.277C415.091 982.592 414.829 982.063 414.304 981.69C413.771 981.317 413.095 981.13 412.278 981.13C411.442 981.13 410.767 981.321 410.251 981.703C409.727 982.077 409.464 982.597 409.464 983.263C409.464 983.886 409.709 984.366 410.198 984.703C410.687 985.041 411.38 985.21 412.278 985.21C413.175 985.21 413.869 985.046 414.358 984.717C414.847 984.379 415.091 983.899 415.091 983.277ZM416.464 977.405L408.464 977.405L408.464 976.125L409.824 976.125L409.824 975.805C409.602 975.751 409.38 975.658 409.158 975.525C408.935 975.391 408.753 975.178 408.611 974.885C408.46 974.591 408.384 974.178 408.384 973.645L408.384 973.378L409.744 973.378L409.744 973.778C409.744 974.578 409.953 975.143 410.371 975.471C410.78 975.8 411.424 975.965 412.304 975.965L416.464 975.965L416.464 977.405ZM416.664 969.423C416.664 970.108 416.491 970.69 416.144 971.17C415.798 971.65 415.313 972.019 414.691 972.277C414.06 972.526 413.318 972.65 412.464 972.65C411.611 972.65 410.873 972.526 410.251 972.277C409.62 972.019 409.131 971.65 408.784 971.17C408.438 970.681 408.264 970.09 408.264 969.397C408.264 968.792 408.393 968.312 408.651 967.957C408.9 967.592 409.184 967.339 409.504 967.197L409.504 966.877L408.464 966.877L408.464 965.597L416.464 965.597L416.464 966.877L415.424 966.877L415.424 967.197C415.744 967.339 416.033 967.592 416.291 967.957C416.54 968.321 416.664 968.81 416.664 969.423ZM415.464 969.17C415.464 968.503 415.189 967.974 414.638 967.583C414.087 967.192 413.362 966.997 412.464 966.997C411.567 966.997 410.842 967.192 410.291 967.583C409.74 967.974 409.464 968.503 409.464 969.17C409.464 969.819 409.727 970.317 410.251 970.663C410.775 971.01 411.513 971.183 412.464 971.183C413.415 971.183 414.153 971.01 414.678 970.663C415.202 970.317 415.464 969.819 415.464 969.17ZM419.131 963.306L408.464 963.306L408.464 962.026L409.504 962.026L409.504 961.706C409.184 961.564 408.9 961.311 408.651 960.946C408.393 960.582 408.264 960.093 408.264 959.48C408.264 958.795 408.438 958.213 408.784 957.733C409.122 957.253 409.607 956.889 410.238 956.64C410.869 956.382 411.611 956.253 412.464 956.253C413.309 956.253 414.047 956.382 414.678 956.64C415.309 956.889 415.798 957.253 416.144 957.733C416.491 958.204 416.664 958.778 416.664 959.453C416.664 959.995 416.558 960.435 416.344 960.773C416.131 961.111 415.851 961.369 415.504 961.546L415.504 961.866L419.131 961.866L419.131 963.306ZM415.464 959.733C415.464 959.084 415.202 958.586 414.678 958.24C414.153 957.893 413.415 957.72 412.464 957.72C411.513 957.72 410.775 957.893 410.251 958.24C409.727 958.586 409.464 959.084 409.464 959.733C409.464 960.4 409.74 960.929 410.291 961.32C410.842 961.711 411.567 961.906 412.464 961.906C413.362 961.906 414.087 961.711 414.638 961.32C415.189 960.929 415.464 960.4 415.464 959.733ZM416.464 954.51L405.798 954.51L405.798 953.07L409.504 953.07L409.504 952.75C409.104 952.554 408.798 952.287 408.584 951.95C408.371 951.612 408.264 951.185 408.264 950.67C408.264 949.754 408.553 949.087 409.131 948.67C409.7 948.243 410.433 948.03 411.331 948.03L416.464 948.03L416.464 949.47L411.638 949.47C410.944 949.47 410.415 949.594 410.051 949.843C409.678 950.092 409.491 950.478 409.491 951.003C409.491 951.652 409.749 952.158 410.264 952.523C410.771 952.887 411.402 953.07 412.158 953.07L416.464 953.07L416.464 954.51ZM416.664 942.798C416.664 943.971 416.282 944.864 415.518 945.478C414.744 946.082 413.727 946.384 412.464 946.384C411.629 946.384 410.9 946.251 410.278 945.984C409.647 945.709 409.153 945.309 408.798 944.784C408.442 944.251 408.264 943.593 408.264 942.811C408.264 941.718 408.62 940.887 409.331 940.318C410.042 939.74 411.073 939.451 412.424 939.451L412.838 939.451L412.838 944.984C413.62 944.94 414.264 944.74 414.771 944.384C415.269 944.02 415.518 943.487 415.518 942.784C415.518 942.278 415.375 941.869 415.091 941.558C414.807 941.247 414.411 941.024 413.904 940.891L413.904 939.531C414.447 939.647 414.927 939.838 415.344 940.104C415.753 940.371 416.078 940.727 416.318 941.171C416.549 941.615 416.664 942.158 416.664 942.798ZM411.798 944.971L411.798 940.851C411.024 940.878 410.433 941.064 410.024 941.411C409.615 941.758 409.411 942.229 409.411 942.824C409.411 943.455 409.62 943.953 410.038 944.318C410.455 944.673 411.042 944.891 411.798 944.971ZM416.464 937.67L408.464 937.67L408.464 936.39L409.824 936.39L409.824 936.07C409.602 936.017 409.38 935.924 409.158 935.79C408.935 935.657 408.753 935.444 408.611 935.15C408.46 934.857 408.384 934.444 408.384 933.91L408.384 933.644L409.744 933.644L409.744 934.044C409.744 934.844 409.953 935.408 410.371 935.737C410.78 936.066 411.424 936.23 412.304 936.23L416.464 936.23L416.464 937.67ZM416.464 928.007L408.544 929.487L408.464 929.487L408.464 928.127L415.264 926.86L415.264 926.594L408.464 925.167L408.464 922.847L415.264 921.407L415.264 921.14L408.464 919.887L408.464 918.607L408.544 918.607L416.464 920.087L416.464 922.42L409.611 923.86L409.611 924.234L416.464 925.674L416.464 928.007ZM416.464 916.9L408.464 916.9L408.464 915.46L416.464 915.46L416.464 916.9ZM407.344 916.18C407.344 916.456 407.264 916.674 407.104 916.834C406.944 916.985 406.731 917.06 406.464 917.06C406.198 917.06 405.984 916.985 405.824 916.834C405.664 916.674 405.584 916.456 405.584 916.18C405.584 915.896 405.664 915.678 405.824 915.527C405.984 915.376 406.198 915.3 406.464 915.3C406.731 915.3 406.944 915.376 407.104 915.527C407.264 915.678 407.344 915.896 407.344 916.18ZM416.464 912.166C416.224 912.361 415.935 912.521 415.598 912.646C415.26 912.761 414.753 912.819 414.078 912.819L409.584 912.819L409.584 913.912L408.464 913.912L408.464 912.792L406.464 912.792L406.464 911.406L408.464 911.406L408.464 910.046L409.584 910.046L409.584 911.379L413.851 911.379C414.58 911.379 415.127 911.304 415.491 911.152C415.847 910.992 416.144 910.801 416.384 910.579L416.464 910.579L416.464 912.166ZM416.464 908.494L405.798 908.494L405.798 907.054L409.504 907.054L409.504 906.734C409.104 906.538 408.798 906.272 408.584 905.934C408.371 905.596 408.264 905.17 408.264 904.654C408.264 903.738 408.553 903.072 409.131 902.654C409.7 902.227 410.433 902.014 411.331 902.014L416.464 902.014L416.464 903.454L411.638 903.454C410.944 903.454 410.415 903.578 410.051 903.827C409.678 904.076 409.491 904.463 409.491 904.987C409.491 905.636 409.749 906.143 410.264 906.507C410.771 906.872 411.402 907.054 412.158 907.054L416.464 907.054L416.464 908.494ZM416.664 893.939C416.664 894.623 416.491 895.206 416.144 895.686C415.798 896.166 415.313 896.535 414.691 896.792C414.06 897.041 413.318 897.166 412.464 897.166C411.611 897.166 410.873 897.041 410.251 896.792C409.62 896.535 409.131 896.166 408.784 895.686C408.438 895.197 408.264 894.606 408.264 893.912C408.264 893.308 408.393 892.828 408.651 892.472C408.9 892.108 409.184 891.855 409.504 891.712L409.504 891.392L408.464 891.392L408.464 890.112L416.464 890.112L416.464 891.392L415.424 891.392L415.424 891.712C415.744 891.855 416.033 892.108 416.291 892.472C416.54 892.837 416.664 893.326 416.664 893.939ZM415.464 893.686C415.464 893.019 415.189 892.49 414.638 892.099C414.087 891.708 413.362 891.512 412.464 891.512C411.567 891.512 410.842 891.708 410.291 892.099C409.74 892.49 409.464 893.019 409.464 893.686C409.464 894.335 409.727 894.832 410.251 895.179C410.775 895.526 411.513 895.699 412.464 895.699C413.415 895.699 414.153 895.526 414.678 895.179C415.202 894.832 415.464 894.335 415.464 893.686ZM416.464 884.032C416.224 884.228 415.935 884.388 415.598 884.512C415.26 884.628 414.753 884.686 414.078 884.686L405.798 884.686L405.798 883.246L413.891 883.246C414.602 883.246 415.135 883.17 415.491 883.019C415.847 882.859 416.144 882.668 416.384 882.446L416.464 882.446L416.464 884.032ZM416.664 877.831C416.664 879.049 416.287 879.956 415.531 880.551C414.767 881.138 413.744 881.431 412.464 881.431C411.184 881.431 410.167 881.138 409.411 880.551C408.647 879.956 408.264 879.049 408.264 877.831C408.264 876.613 408.647 875.711 409.411 875.125C410.167 874.529 411.184 874.231 412.464 874.231C413.744 874.231 414.767 874.529 415.531 875.125C416.287 875.711 416.664 876.613 416.664 877.831ZM415.491 877.831C415.491 877.093 415.22 876.556 414.678 876.218C414.135 875.871 413.398 875.698 412.464 875.698C411.531 875.698 410.793 875.871 410.251 876.218C409.709 876.556 409.438 877.093 409.438 877.831C409.438 878.569 409.709 879.111 410.251 879.458C410.793 879.796 411.531 879.965 412.464 879.965C413.398 879.965 414.135 879.796 414.678 879.458C415.22 879.111 415.491 878.569 415.491 877.831ZM416.464 871.099L408.544 873.526L408.464 873.526L408.464 872.086L415.264 870.072L415.264 869.752L408.464 867.739L408.464 866.406L408.544 866.406L416.464 868.832L416.464 871.099ZM416.664 861.985C416.664 863.159 416.282 864.052 415.518 864.665C414.744 865.27 413.727 865.572 412.464 865.572C411.629 865.572 410.9 865.439 410.278 865.172C409.647 864.896 409.153 864.496 408.798 863.972C408.442 863.439 408.264 862.781 408.264 861.999C408.264 860.905 408.62 860.074 409.331 859.505C410.042 858.927 411.073 858.639 412.424 858.639L412.838 858.639L412.838 864.172C413.62 864.127 414.264 863.927 414.771 863.572C415.269 863.207 415.518 862.674 415.518 861.972C415.518 861.465 415.375 861.056 415.091 860.745C414.807 860.434 414.411 860.212 413.904 860.079L413.904 858.719C414.447 858.834 414.927 859.025 415.344 859.292C415.753 859.559 416.078 859.914 416.318 860.359C416.549 860.803 416.664 861.345 416.664 861.985ZM411.798 864.159L411.798 860.039C411.024 860.065 410.433 860.252 410.024 860.599C409.615 860.945 409.411 861.416 409.411 862.012C409.411 862.643 409.62 863.141 410.038 863.505C410.455 863.861 411.042 864.079 411.798 864.159ZM416.464 853.255L409.584 853.255L409.584 854.428L408.464 854.428L408.464 853.255L407.944 853.255C407.544 853.255 407.18 853.188 406.851 853.055C406.522 852.921 406.26 852.695 406.064 852.375C405.869 852.055 405.771 851.619 405.771 851.068C405.771 850.873 405.784 850.704 405.811 850.561L406.958 850.561C406.931 850.65 406.918 850.784 406.918 850.961C406.918 851.353 407.015 851.601 407.211 851.708C407.398 851.815 407.647 851.868 407.958 851.868L408.464 851.868L408.464 850.561L409.584 850.561L409.584 851.868L416.464 851.868L416.464 853.255ZM416.664 845.956C416.664 847.174 416.287 848.081 415.531 848.676C414.767 849.263 413.744 849.556 412.464 849.556C411.184 849.556 410.167 849.263 409.411 848.676C408.647 848.081 408.264 847.174 408.264 845.956C408.264 844.738 408.647 843.836 409.411 843.25C410.167 842.654 411.184 842.356 412.464 842.356C413.744 842.356 414.767 842.654 415.531 843.25C416.287 843.836 416.664 844.738 416.664 845.956ZM415.491 845.956C415.491 845.218 415.22 844.681 414.678 844.343C414.135 843.996 413.398 843.823 412.464 843.823C411.531 843.823 410.793 843.996 410.251 844.343C409.709 844.681 409.438 845.218 409.438 845.956C409.438 846.694 409.709 847.236 410.251 847.583C410.793 847.921 411.531 848.09 412.464 848.09C413.398 848.09 414.135 847.921 414.678 847.583C415.22 847.236 415.491 846.694 415.491 845.956ZM416.464 840.577L408.464 840.577L408.464 839.297L409.824 839.297L409.824 838.977C409.602 838.923 409.38 838.83 409.158 838.697C408.935 838.563 408.753 838.35 408.611 838.057C408.46 837.763 408.384 837.35 408.384 836.817L408.384 836.55L409.744 836.55L409.744 836.95C409.744 837.75 409.953 838.314 410.371 838.643C410.78 838.972 411.424 839.137 412.304 839.137L416.464 839.137L416.464 840.577ZM416.464 830.806C416.224 831.002 415.935 831.162 415.598 831.286C415.26 831.402 414.753 831.46 414.078 831.46L409.584 831.46L409.584 832.553L408.464 832.553L408.464 831.433L406.464 831.433L406.464 830.046L408.464 830.046L408.464 828.686L409.584 828.686L409.584 830.02L413.851 830.02C414.58 830.02 415.127 829.944 415.491 829.793C415.847 829.633 416.144 829.442 416.384 829.22L416.464 829.22L416.464 830.806ZM416.464 827.135L405.798 827.135L405.798 825.695L409.504 825.695L409.504 825.375C409.104 825.179 408.798 824.912 408.584 824.575C408.371 824.237 408.264 823.81 408.264 823.295C408.264 822.379 408.553 821.712 409.131 821.295C409.7 820.868 410.433 820.655 411.331 820.655L416.464 820.655L416.464 822.095L411.638 822.095C410.944 822.095 410.415 822.219 410.051 822.468C409.678 822.717 409.491 823.103 409.491 823.628C409.491 824.277 409.749 824.783 410.264 825.148C410.771 825.512 411.402 825.695 412.158 825.695L416.464 825.695L416.464 827.135ZM416.664 815.423C416.664 816.596 416.282 817.489 415.518 818.103C414.744 818.707 413.727 819.009 412.464 819.009C411.629 819.009 410.9 818.876 410.278 818.609C409.647 818.334 409.153 817.934 408.798 817.409C408.442 816.876 408.264 816.218 408.264 815.436C408.264 814.343 408.62 813.512 409.331 812.943C410.042 812.365 411.073 812.076 412.424 812.076L412.838 812.076L412.838 817.609C413.62 817.565 414.264 817.365 414.771 817.009C415.269 816.645 415.518 816.112 415.518 815.409C415.518 814.903 415.375 814.494 415.091 814.183C414.807 813.872 414.411 813.649 413.904 813.516L413.904 812.156C414.447 812.272 414.927 812.463 415.344 812.729C415.753 812.996 416.078 813.352 416.318 813.796C416.549 814.24 416.664 814.783 416.664 815.423ZM411.798 817.596L411.798 813.476C411.024 813.503 410.433 813.689 410.024 814.036C409.615 814.383 409.411 814.854 409.411 815.449C409.411 816.08 409.62 816.578 410.038 816.943C410.455 817.298 411.042 817.516 411.798 817.596ZM416.464 807.119L408.464 807.119L408.464 805.839L409.678 805.839L409.678 805.519C409.224 805.395 408.878 805.159 408.638 804.812C408.389 804.457 408.264 804.008 408.264 803.466C408.264 802.888 408.393 802.417 408.651 802.052C408.9 801.688 409.242 801.421 409.678 801.252L409.678 800.932C409.224 800.781 408.878 800.523 408.638 800.159C408.389 799.786 408.264 799.315 408.264 798.746C408.264 797.866 408.553 797.23 409.131 796.839C409.7 796.439 410.433 796.239 411.331 796.239L416.464 796.239L416.464 797.679L411.638 797.679C410.944 797.679 410.415 797.79 410.051 798.012C409.678 798.235 409.491 798.59 409.491 799.079C409.491 799.675 409.749 800.137 410.264 800.466C410.771 800.795 411.402 800.959 412.158 800.959L416.464 800.959L416.464 802.399L411.638 802.399C410.944 802.399 410.415 802.51 410.051 802.732C409.678 802.955 409.491 803.31 409.491 803.799C409.491 804.395 409.749 804.857 410.264 805.186C410.771 805.515 411.402 805.679 412.158 805.679L416.464 805.679L416.464 807.119ZM416.464 794.056L408.464 794.056L408.464 792.616L416.464 792.616L416.464 794.056ZM407.344 793.336C407.344 793.612 407.264 793.83 407.104 793.99C406.944 794.141 406.731 794.216 406.464 794.216C406.198 794.216 405.984 794.141 405.824 793.99C405.664 793.83 405.584 793.612 405.584 793.336C405.584 793.052 405.664 792.834 405.824 792.683C405.984 792.532 406.198 792.456 406.464 792.456C406.731 792.456 406.944 792.532 407.104 792.683C407.264 792.834 407.344 793.052 407.344 793.336ZM416.464 790.322L408.464 790.322L408.464 789.042L409.664 789.042L409.664 788.722C409.22 788.571 408.878 788.309 408.638 787.935C408.389 787.562 408.264 787.087 408.264 786.509C408.264 785.575 408.553 784.9 409.131 784.482C409.7 784.055 410.433 783.842 411.331 783.842L416.464 783.842L416.464 785.282L411.638 785.282C410.944 785.282 410.415 785.407 410.051 785.655C409.678 785.904 409.491 786.291 409.491 786.815C409.491 787.464 409.749 787.971 410.264 788.335C410.771 788.7 411.402 788.882 412.158 788.882L416.464 788.882L416.464 790.322ZM416.464 781.65L408.464 781.65L408.464 780.21L416.464 780.21L416.464 781.65ZM407.344 780.93C407.344 781.206 407.264 781.424 407.104 781.584C406.944 781.735 406.731 781.81 406.464 781.81C406.198 781.81 405.984 781.735 405.824 781.584C405.664 781.424 405.584 781.206 405.584 780.93C405.584 780.646 405.664 780.428 405.824 780.277C405.984 780.126 406.198 780.05 406.464 780.05C406.731 780.05 406.944 780.126 407.104 780.277C407.264 780.428 407.344 780.646 407.344 780.93ZM416.464 777.916L408.464 777.916L408.464 776.636L409.678 776.636L409.678 776.316C409.224 776.191 408.878 775.956 408.638 775.609C408.389 775.254 408.264 774.805 408.264 774.262C408.264 773.685 408.393 773.214 408.651 772.849C408.9 772.485 409.242 772.218 409.678 772.049L409.678 771.729C409.224 771.578 408.878 771.32 408.638 770.956C408.389 770.582 408.264 770.111 408.264 769.542C408.264 768.662 408.553 768.027 409.131 767.636C409.7 767.236 410.433 767.036 411.331 767.036L416.464 767.036L416.464 768.476L411.638 768.476C410.944 768.476 410.415 768.587 410.051 768.809C409.678 769.031 409.491 769.387 409.491 769.876C409.491 770.471 409.749 770.934 410.264 771.262C410.771 771.591 411.402 771.756 412.158 771.756L416.464 771.756L416.464 773.196L411.638 773.196C410.944 773.196 410.415 773.307 410.051 773.529C409.678 773.751 409.491 774.107 409.491 774.596C409.491 775.191 409.749 775.654 410.264 775.982C410.771 776.311 411.402 776.476 412.158 776.476L416.464 776.476L416.464 777.916ZM416.664 762.173C416.664 762.858 416.491 763.44 416.144 763.92C415.798 764.4 415.313 764.769 414.691 765.027C414.06 765.276 413.318 765.4 412.464 765.4C411.611 765.4 410.873 765.276 410.251 765.027C409.62 764.769 409.131 764.4 408.784 763.92C408.438 763.431 408.264 762.84 408.264 762.147C408.264 761.542 408.393 761.062 408.651 760.707C408.9 760.342 409.184 760.089 409.504 759.947L409.504 759.627L408.464 759.627L408.464 758.347L416.464 758.347L416.464 759.627L415.424 759.627L415.424 759.947C415.744 760.089 416.033 760.342 416.291 760.707C416.54 761.071 416.664 761.56 416.664 762.173ZM415.464 761.92C415.464 761.253 415.189 760.724 414.638 760.333C414.087 759.942 413.362 759.747 412.464 759.747C411.567 759.747 410.842 759.942 410.291 760.333C409.74 760.724 409.464 761.253 409.464 761.92C409.464 762.569 409.727 763.067 410.251 763.413C410.775 763.76 411.513 763.933 412.464 763.933C413.415 763.933 414.153 763.76 414.678 763.413C415.202 763.067 415.464 762.569 415.464 761.92ZM416.464 755.47C416.224 755.665 415.935 755.825 415.598 755.95C415.26 756.065 414.753 756.123 414.078 756.123L405.798 756.123L405.798 754.683L413.891 754.683C414.602 754.683 415.135 754.608 415.491 754.456C415.847 754.296 416.144 754.105 416.384 753.883L416.464 753.883L416.464 755.47ZM418.464 753.069L418.384 753.069C418.055 752.873 417.735 752.695 417.424 752.535C417.122 752.375 416.824 752.233 416.531 752.109C416.478 752.304 416.38 752.473 416.238 752.615C416.087 752.758 415.882 752.829 415.624 752.829C415.358 752.829 415.144 752.749 414.984 752.589C414.815 752.42 414.731 752.18 414.731 751.869C414.731 751.558 414.824 751.322 415.011 751.162C415.198 750.993 415.447 750.909 415.758 750.909C416.095 750.909 416.482 750.998 416.918 751.175C417.362 751.353 417.878 751.611 418.464 751.949L418.464 753.069ZM442.664 1035.17C442.664 1035.86 442.491 1036.44 442.144 1036.92C441.798 1037.4 441.313 1037.77 440.691 1038.03C440.06 1038.28 439.318 1038.4 438.464 1038.4C437.611 1038.4 436.873 1038.28 436.251 1038.03C435.62 1037.77 435.131 1037.4 434.784 1036.92C434.438 1036.43 434.264 1035.84 434.264 1035.15C434.264 1034.54 434.393 1034.06 434.651 1033.71C434.9 1033.34 435.184 1033.09 435.504 1032.95L435.504 1032.63L434.464 1032.63L434.464 1031.35L442.464 1031.35L442.464 1032.63L441.424 1032.63L441.424 1032.95C441.744 1033.09 442.033 1033.34 442.291 1033.71C442.54 1034.07 442.664 1034.56 442.664 1035.17ZM441.464 1034.92C441.464 1034.25 441.189 1033.72 440.638 1033.33C440.087 1032.94 439.362 1032.75 438.464 1032.75C437.567 1032.75 436.842 1032.94 436.291 1033.33C435.74 1033.72 435.464 1034.25 435.464 1034.92C435.464 1035.57 435.727 1036.07 436.251 1036.41C436.775 1036.76 437.513 1036.93 438.464 1036.93C439.415 1036.93 440.153 1036.76 440.678 1036.41C441.202 1036.07 441.464 1035.57 441.464 1034.92ZM442.464 1025.8L432.064 1025.8L432.064 1019.05L433.318 1019.05L433.318 1024.31L436.318 1024.31L436.318 1020.15L437.518 1020.15L437.518 1024.31L442.464 1024.31L442.464 1025.8ZM442.464 1017.59L434.464 1017.59L434.464 1016.15L442.464 1016.15L442.464 1017.59ZM433.344 1016.87C433.344 1017.14 433.264 1017.36 433.104 1017.52C432.944 1017.67 432.731 1017.75 432.464 1017.75C432.198 1017.75 431.984 1017.67 431.824 1017.52C431.664 1017.36 431.584 1017.14 431.584 1016.87C431.584 1016.58 431.664 1016.37 431.824 1016.21C431.984 1016.06 432.198 1015.99 432.464 1015.99C432.731 1015.99 432.944 1016.06 433.104 1016.21C433.264 1016.37 433.344 1016.58 433.344 1016.87ZM442.464 1013.27C442.224 1013.46 441.935 1013.62 441.598 1013.75C441.26 1013.86 440.753 1013.92 440.078 1013.92L431.798 1013.92L431.798 1012.48L439.891 1012.48C440.602 1012.48 441.135 1012.4 441.491 1012.25C441.847 1012.09 442.144 1011.9 442.384 1011.68L442.464 1011.68L442.464 1013.27ZM442.464 1010.12L434.464 1010.12L434.464 1008.68L442.464 1008.68L442.464 1010.12ZM433.344 1009.4C433.344 1009.67 433.264 1009.89 433.104 1010.05C432.944 1010.2 432.731 1010.28 432.464 1010.28C432.198 1010.28 431.984 1010.2 431.824 1010.05C431.664 1009.89 431.584 1009.67 431.584 1009.4C431.584 1009.11 431.664 1008.9 431.824 1008.75C431.984 1008.59 432.198 1008.52 432.464 1008.52C432.731 1008.52 432.944 1008.59 433.104 1008.75C433.264 1008.9 433.344 1009.11 433.344 1009.4ZM445.131 1006.38L434.464 1006.38L434.464 1005.1L435.504 1005.1L435.504 1004.78C435.184 1004.64 434.9 1004.39 434.651 1004.02C434.393 1003.66 434.264 1003.17 434.264 1002.56C434.264 1001.87 434.438 1001.29 434.784 1000.81C435.122 1000.33 435.607 999.967 436.238 999.718C436.869 999.46 437.611 999.331 438.464 999.331C439.309 999.331 440.047 999.46 440.678 999.718C441.309 999.967 441.798 1000.33 442.144 1000.81C442.491 1001.28 442.664 1001.86 442.664 1002.53C442.664 1003.07 442.558 1003.51 442.344 1003.85C442.131 1004.19 441.851 1004.45 441.504 1004.62L441.504 1004.94L445.131 1004.94L445.131 1006.38ZM441.464 1002.81C441.464 1002.16 441.202 1001.66 440.678 1001.32C440.153 1000.97 439.415 1000.8 438.464 1000.8C437.513 1000.8 436.775 1000.97 436.251 1001.32C435.727 1001.66 435.464 1002.16 435.464 1002.81C435.464 1003.48 435.74 1004.01 436.291 1004.4C436.842 1004.79 437.567 1004.98 438.464 1004.98C439.362 1004.98 440.087 1004.79 440.638 1004.4C441.189 1004.01 441.464 1003.48 441.464 1002.81ZM442.464 997.588L434.464 997.588L434.464 996.148L442.464 996.148L442.464 997.588ZM433.344 996.868C433.344 997.143 433.264 997.361 433.104 997.521C432.944 997.672 432.731 997.748 432.464 997.748C432.198 997.748 431.984 997.672 431.824 997.521C431.664 997.361 431.584 997.143 431.584 996.868C431.584 996.583 431.664 996.365 431.824 996.214C431.984 996.063 432.198 995.988 432.464 995.988C432.731 995.988 432.944 996.063 433.104 996.214C433.264 996.365 433.344 996.583 433.344 996.868ZM442.464 993.853L434.464 993.853L434.464 992.573L435.664 992.573L435.664 992.253C435.22 992.102 434.878 991.84 434.638 991.467C434.389 991.093 434.264 990.618 434.264 990.04C434.264 989.107 434.553 988.431 435.131 988.013C435.7 987.587 436.433 987.373 437.331 987.373L442.464 987.373L442.464 988.813L437.638 988.813C436.944 988.813 436.415 988.938 436.051 989.187C435.678 989.436 435.491 989.822 435.491 990.347C435.491 990.996 435.749 991.502 436.264 991.867C436.771 992.231 437.402 992.413 438.158 992.413L442.464 992.413L442.464 993.853ZM442.664 982.128C442.664 983.346 442.287 984.253 441.531 984.848C440.767 985.435 439.744 985.728 438.464 985.728C437.184 985.728 436.167 985.435 435.411 984.848C434.647 984.253 434.264 983.346 434.264 982.128C434.264 980.91 434.647 980.008 435.411 979.421C436.167 978.826 437.184 978.528 438.464 978.528C439.744 978.528 440.767 978.826 441.531 979.421C442.287 980.008 442.664 980.91 442.664 982.128ZM441.491 982.128C441.491 981.39 441.22 980.853 440.678 980.515C440.135 980.168 439.398 979.995 438.464 979.995C437.531 979.995 436.793 980.168 436.251 980.515C435.709 980.853 435.438 981.39 435.438 982.128C435.438 982.866 435.709 983.408 436.251 983.755C436.793 984.093 437.531 984.261 438.464 984.261C439.398 984.261 440.135 984.093 440.678 983.755C441.22 983.408 441.491 982.866 441.491 982.128ZM442.464 972.679L434.544 974.159L434.464 974.159L434.464 972.799L441.264 971.532L441.264 971.265L434.464 969.839L434.464 967.519L441.264 966.079L441.264 965.812L434.464 964.559L434.464 963.279L434.544 963.279L442.464 964.759L442.464 967.092L435.611 968.532L435.611 968.905L442.464 970.345L442.464 972.679ZM442.464 961.572L434.464 961.572L434.464 960.132L442.464 960.132L442.464 961.572ZM433.344 960.852C433.344 961.128 433.264 961.345 433.104 961.505C432.944 961.657 432.731 961.732 432.464 961.732C432.198 961.732 431.984 961.657 431.824 961.505C431.664 961.345 431.584 961.128 431.584 960.852C431.584 960.568 431.664 960.35 431.824 960.199C431.984 960.048 432.198 959.972 432.464 959.972C432.731 959.972 432.944 960.048 433.104 960.199C433.264 960.35 433.344 960.568 433.344 960.852ZM442.464 956.838C442.224 957.033 441.935 957.193 441.598 957.318C441.26 957.433 440.753 957.491 440.078 957.491L435.584 957.491L435.584 958.584L434.464 958.584L434.464 957.464L432.464 957.464L432.464 956.078L434.464 956.078L434.464 954.718L435.584 954.718L435.584 956.051L439.851 956.051C440.58 956.051 441.127 955.975 441.491 955.824C441.847 955.664 442.144 955.473 442.384 955.251L442.464 955.251L442.464 956.838ZM442.464 953.166L431.798 953.166L431.798 951.726L435.504 951.726L435.504 951.406C435.104 951.21 434.798 950.944 434.584 950.606C434.371 950.268 434.264 949.841 434.264 949.326C434.264 948.41 434.553 947.744 435.131 947.326C435.7 946.899 436.433 946.686 437.331 946.686L442.464 946.686L442.464 948.126L437.638 948.126C436.944 948.126 436.415 948.25 436.051 948.499C435.678 948.748 435.491 949.135 435.491 949.659C435.491 950.308 435.749 950.815 436.264 951.179C436.771 951.544 437.402 951.726 438.158 951.726L442.464 951.726L442.464 953.166ZM445.131 941.291L434.464 941.291L434.464 940.011L435.504 940.011L435.504 939.691C435.184 939.549 434.9 939.295 434.651 938.931C434.393 938.566 434.264 938.077 434.264 937.464C434.264 936.78 434.438 936.197 434.784 935.717C435.122 935.237 435.607 934.873 436.238 934.624C436.869 934.366 437.611 934.237 438.464 934.237C439.309 934.237 440.047 934.366 440.678 934.624C441.309 934.873 441.798 935.237 442.144 935.717C442.491 936.189 442.664 936.762 442.664 937.437C442.664 937.98 442.558 938.42 442.344 938.757C442.131 939.095 441.851 939.353 441.504 939.531L441.504 939.851L445.131 939.851L445.131 941.291ZM441.464 937.717C441.464 937.069 441.202 936.571 440.678 936.224C440.153 935.877 439.415 935.704 438.464 935.704C437.513 935.704 436.775 935.877 436.251 936.224C435.727 936.571 435.464 937.069 435.464 937.717C435.464 938.384 435.74 938.913 436.291 939.304C436.842 939.695 437.567 939.891 438.464 939.891C439.362 939.891 440.087 939.695 440.638 939.304C441.189 938.913 441.464 938.384 441.464 937.717ZM442.664 929.814C442.664 930.498 442.491 931.081 442.144 931.561C441.798 932.041 441.313 932.41 440.691 932.667C440.06 932.916 439.318 933.041 438.464 933.041C437.611 933.041 436.873 932.916 436.251 932.667C435.62 932.41 435.131 932.041 434.784 931.561C434.438 931.072 434.264 930.481 434.264 929.787C434.264 929.183 434.393 928.703 434.651 928.347C434.9 927.983 435.184 927.73 435.504 927.587L435.504 927.267L434.464 927.267L434.464 925.987L442.464 925.987L442.464 927.267L441.424 927.267L441.424 927.587C441.744 927.73 442.033 927.983 442.291 928.347C442.54 928.712 442.664 929.201 442.664 929.814ZM441.464 929.561C441.464 928.894 441.189 928.365 440.638 927.974C440.087 927.583 439.362 927.387 438.464 927.387C437.567 927.387 436.842 927.583 436.291 927.974C435.74 928.365 435.464 928.894 435.464 929.561C435.464 930.21 435.727 930.707 436.251 931.054C436.775 931.401 437.513 931.574 438.464 931.574C439.415 931.574 440.153 931.401 440.678 931.054C441.202 930.707 441.464 930.21 441.464 929.561ZM442.664 921.084C442.664 921.822 442.535 922.43 442.278 922.91C442.011 923.39 441.669 923.75 441.251 923.99C440.824 924.23 440.375 924.364 439.904 924.39L439.904 922.977C440.171 922.95 440.433 922.866 440.691 922.724C440.94 922.582 441.144 922.373 441.304 922.097C441.464 921.822 441.544 921.47 441.544 921.044C441.544 920.573 441.447 920.208 441.251 919.95C441.047 919.693 440.78 919.564 440.451 919.564C440.167 919.564 439.927 919.666 439.731 919.87C439.527 920.066 439.349 920.373 439.198 920.79L438.864 921.737C438.704 922.164 438.531 922.55 438.344 922.897C438.149 923.235 437.909 923.506 437.624 923.71C437.331 923.915 436.962 924.017 436.518 924.017C435.833 924.017 435.287 923.773 434.878 923.284C434.469 922.795 434.264 922.124 434.264 921.27C434.264 920.657 434.371 920.15 434.584 919.75C434.798 919.342 435.091 919.03 435.464 918.817C435.829 918.604 436.242 918.479 436.704 918.444L436.704 919.804C436.367 919.839 436.064 919.973 435.798 920.204C435.522 920.435 435.384 920.813 435.384 921.337C435.384 921.755 435.478 922.075 435.664 922.297C435.842 922.519 436.087 922.63 436.398 922.63C436.7 922.63 436.949 922.524 437.144 922.31C437.34 922.097 437.518 921.777 437.678 921.35L437.998 920.404C438.158 919.977 438.335 919.595 438.531 919.257C438.718 918.919 438.953 918.657 439.238 918.47C439.522 918.275 439.887 918.177 440.331 918.177C441.015 918.177 441.575 918.426 442.011 918.924C442.447 919.422 442.664 920.142 442.664 921.084ZM442.664 913.881C442.664 914.618 442.535 915.227 442.278 915.707C442.011 916.187 441.669 916.547 441.251 916.787C440.824 917.027 440.375 917.161 439.904 917.187L439.904 915.774C440.171 915.747 440.433 915.663 440.691 915.521C440.94 915.378 441.144 915.17 441.304 914.894C441.464 914.618 441.544 914.267 441.544 913.841C441.544 913.37 441.447 913.005 441.251 912.747C441.047 912.49 440.78 912.361 440.451 912.361C440.167 912.361 439.927 912.463 439.731 912.667C439.527 912.863 439.349 913.17 439.198 913.587L438.864 914.534C438.704 914.961 438.531 915.347 438.344 915.694C438.149 916.032 437.909 916.303 437.624 916.507C437.331 916.712 436.962 916.814 436.518 916.814C435.833 916.814 435.287 916.57 434.878 916.081C434.469 915.592 434.264 914.921 434.264 914.067C434.264 913.454 434.371 912.947 434.584 912.547C434.798 912.138 435.091 911.827 435.464 911.614C435.829 911.401 436.242 911.276 436.704 911.241L436.704 912.601C436.367 912.636 436.064 912.77 435.798 913.001C435.522 913.232 435.384 913.61 435.384 914.134C435.384 914.552 435.478 914.872 435.664 915.094C435.842 915.316 436.087 915.427 436.398 915.427C436.7 915.427 436.949 915.321 437.144 915.107C437.34 914.894 437.518 914.574 437.678 914.147L437.998 913.201C438.158 912.774 438.335 912.392 438.531 912.054C438.718 911.716 438.953 911.454 439.238 911.267C439.522 911.072 439.887 910.974 440.331 910.974C441.015 910.974 441.575 911.223 442.011 911.721C442.447 912.218 442.664 912.938 442.664 913.881ZM442.464 909.291L434.464 909.291L434.464 907.851L442.464 907.851L442.464 909.291ZM433.344 908.571C433.344 908.846 433.264 909.064 433.104 909.224C432.944 909.375 432.731 909.451 432.464 909.451C432.198 909.451 431.984 909.375 431.824 909.224C431.664 909.064 431.584 908.846 431.584 908.571C431.584 908.286 431.664 908.069 431.824 907.917C431.984 907.766 432.198 907.691 432.464 907.691C432.731 907.691 432.944 907.766 433.104 907.917C433.264 908.069 433.344 908.286 433.344 908.571ZM442.664 902.503C442.664 903.721 442.287 904.628 441.531 905.223C440.767 905.81 439.744 906.103 438.464 906.103C437.184 906.103 436.167 905.81 435.411 905.223C434.647 904.628 434.264 903.721 434.264 902.503C434.264 901.285 434.647 900.383 435.411 899.796C436.167 899.201 437.184 898.903 438.464 898.903C439.744 898.903 440.767 899.201 441.531 899.796C442.287 900.383 442.664 901.285 442.664 902.503ZM441.491 902.503C441.491 901.765 441.22 901.228 440.678 900.89C440.135 900.543 439.398 900.37 438.464 900.37C437.531 900.37 436.793 900.543 436.251 900.89C435.709 901.228 435.438 901.765 435.438 902.503C435.438 903.241 435.709 903.783 436.251 904.13C436.793 904.468 437.531 904.636 438.464 904.636C439.398 904.636 440.135 904.468 440.678 904.13C441.22 903.783 441.491 903.241 441.491 902.503ZM442.464 897.15L434.464 897.15L434.464 895.87L435.664 895.87L435.664 895.55C435.22 895.399 434.878 895.137 434.638 894.764C434.389 894.39 434.264 893.915 434.264 893.337C434.264 892.404 434.553 891.728 435.131 891.31C435.7 890.884 436.433 890.67 437.331 890.67L442.464 890.67L442.464 892.11L437.638 892.11C436.944 892.11 436.415 892.235 436.051 892.484C435.678 892.732 435.491 893.119 435.491 893.644C435.491 894.292 435.749 894.799 436.264 895.164C436.771 895.528 437.402 895.71 438.158 895.71L442.464 895.71L442.464 897.15ZM442.464 884.849L435.584 884.849L435.584 886.022L434.464 886.022L434.464 884.849L433.944 884.849C433.544 884.849 433.18 884.782 432.851 884.649C432.522 884.515 432.26 884.289 432.064 883.969C431.869 883.649 431.771 883.213 431.771 882.662C431.771 882.466 431.784 882.297 431.811 882.155L432.958 882.155C432.931 882.244 432.918 882.377 432.918 882.555C432.918 882.946 433.015 883.195 433.211 883.302C433.398 883.409 433.647 883.462 433.958 883.462L434.464 883.462L434.464 882.155L435.584 882.155L435.584 883.462L442.464 883.462L442.464 884.849ZM442.664 877.55C442.664 878.768 442.287 879.674 441.531 880.27C440.767 880.857 439.744 881.15 438.464 881.15C437.184 881.15 436.167 880.857 435.411 880.27C434.647 879.674 434.264 878.768 434.264 877.55C434.264 876.332 434.647 875.43 435.411 874.843C436.167 874.248 437.184 873.95 438.464 873.95C439.744 873.95 440.767 874.248 441.531 874.843C442.287 875.43 442.664 876.332 442.664 877.55ZM441.491 877.55C441.491 876.812 441.22 876.274 440.678 875.937C440.135 875.59 439.398 875.417 438.464 875.417C437.531 875.417 436.793 875.59 436.251 875.937C435.709 876.274 435.438 876.812 435.438 877.55C435.438 878.288 435.709 878.83 436.251 879.177C436.793 879.514 437.531 879.683 438.464 879.683C439.398 879.683 440.135 879.514 440.678 879.177C441.22 878.83 441.491 878.288 441.491 877.55ZM442.464 872.17L434.464 872.17L434.464 870.89L435.824 870.89L435.824 870.57C435.602 870.517 435.38 870.424 435.158 870.29C434.935 870.157 434.753 869.944 434.611 869.65C434.46 869.357 434.384 868.944 434.384 868.41L434.384 868.144L435.744 868.144L435.744 868.544C435.744 869.344 435.953 869.908 436.371 870.237C436.78 870.566 437.424 870.73 438.304 870.73L442.464 870.73L442.464 872.17ZM442.464 862.4C442.224 862.596 441.935 862.756 441.598 862.88C441.26 862.996 440.753 863.054 440.078 863.054L435.584 863.054L435.584 864.147L434.464 864.147L434.464 863.027L432.464 863.027L432.464 861.64L434.464 861.64L434.464 860.28L435.584 860.28L435.584 861.614L439.851 861.614C440.58 861.614 441.127 861.538 441.491 861.387C441.847 861.227 442.144 861.036 442.384 860.814L442.464 860.814L442.464 862.4ZM442.464 858.728L431.798 858.728L431.798 857.288L435.504 857.288L435.504 856.968C435.104 856.773 434.798 856.506 434.584 856.168C434.371 855.831 434.264 855.404 434.264 854.888C434.264 853.973 434.553 853.306 435.131 852.888C435.7 852.462 436.433 852.248 437.331 852.248L442.464 852.248L442.464 853.688L437.638 853.688C436.944 853.688 436.415 853.813 436.051 854.062C435.678 854.311 435.491 854.697 435.491 855.222C435.491 855.871 435.749 856.377 436.264 856.742C436.771 857.106 437.402 857.288 438.158 857.288L442.464 857.288L442.464 858.728ZM442.664 847.016C442.664 848.19 442.282 849.083 441.518 849.696C440.744 850.301 439.727 850.603 438.464 850.603C437.629 850.603 436.9 850.47 436.278 850.203C435.647 849.928 435.153 849.528 434.798 849.003C434.442 848.47 434.264 847.812 434.264 847.03C434.264 845.936 434.62 845.105 435.331 844.536C436.042 843.959 437.073 843.67 438.424 843.67L438.838 843.67L438.838 849.203C439.62 849.159 440.264 848.959 440.771 848.603C441.269 848.239 441.518 847.705 441.518 847.003C441.518 846.496 441.375 846.088 441.091 845.776C440.807 845.465 440.411 845.243 439.904 845.11L439.904 843.75C440.447 843.865 440.927 844.056 441.344 844.323C441.753 844.59 442.078 844.945 442.318 845.39C442.549 845.834 442.664 846.376 442.664 847.016ZM437.798 849.19L437.798 845.07C437.024 845.096 436.433 845.283 436.024 845.63C435.615 845.976 435.411 846.448 435.411 847.043C435.411 847.674 435.62 848.172 436.038 848.536C436.455 848.892 437.042 849.11 437.798 849.19ZM442.664 836.099C442.664 836.837 442.535 837.446 442.278 837.926C442.011 838.406 441.669 838.766 441.251 839.006C440.824 839.246 440.375 839.379 439.904 839.406L439.904 837.993C440.171 837.966 440.433 837.882 440.691 837.739C440.94 837.597 441.144 837.388 441.304 837.113C441.464 836.837 441.544 836.486 441.544 836.059C441.544 835.588 441.447 835.224 441.251 834.966C441.047 834.708 440.78 834.579 440.451 834.579C440.167 834.579 439.927 834.682 439.731 834.886C439.527 835.082 439.349 835.388 439.198 835.806L438.864 836.753C438.704 837.179 438.531 837.566 438.344 837.913C438.149 838.25 437.909 838.522 437.624 838.726C437.331 838.93 436.962 839.033 436.518 839.033C435.833 839.033 435.287 838.788 434.878 838.299C434.469 837.81 434.264 837.139 434.264 836.286C434.264 835.673 434.371 835.166 434.584 834.766C434.798 834.357 435.091 834.046 435.464 833.833C435.829 833.619 436.242 833.495 436.704 833.459L436.704 834.819C436.367 834.855 436.064 834.988 435.798 835.219C435.522 835.45 435.384 835.828 435.384 836.353C435.384 836.77 435.478 837.09 435.664 837.313C435.842 837.535 436.087 837.646 436.398 837.646C436.7 837.646 436.949 837.539 437.144 837.326C437.34 837.113 437.518 836.793 437.678 836.366L437.998 835.419C438.158 834.993 438.335 834.61 438.531 834.273C438.718 833.935 438.953 833.673 439.238 833.486C439.522 833.29 439.887 833.193 440.331 833.193C441.015 833.193 441.575 833.442 442.011 833.939C442.447 834.437 442.664 835.157 442.664 836.099ZM442.464 831.51L434.464 831.51L434.464 830.07L442.464 830.07L442.464 831.51ZM433.344 830.79C433.344 831.065 433.264 831.283 433.104 831.443C432.944 831.594 432.731 831.67 432.464 831.67C432.198 831.67 431.984 831.594 431.824 831.443C431.664 831.283 431.584 831.065 431.584 830.79C431.584 830.505 431.664 830.287 431.824 830.136C431.984 829.985 432.198 829.91 432.464 829.91C432.731 829.91 432.944 829.985 433.104 830.136C433.264 830.287 433.344 830.505 433.344 830.79ZM442.464 827.775L434.464 827.775L434.464 826.495L435.678 826.495L435.678 826.175C435.224 826.051 434.878 825.815 434.638 825.469C434.389 825.113 434.264 824.664 434.264 824.122C434.264 823.544 434.393 823.073 434.651 822.709C434.9 822.344 435.242 822.077 435.678 821.909L435.678 821.589C435.224 821.437 434.878 821.18 434.638 820.815C434.389 820.442 434.264 819.971 434.264 819.402C434.264 818.522 434.553 817.886 435.131 817.495C435.7 817.095 436.433 816.895 437.331 816.895L442.464 816.895L442.464 818.335L437.638 818.335C436.944 818.335 436.415 818.446 436.051 818.669C435.678 818.891 435.491 819.246 435.491 819.735C435.491 820.331 435.749 820.793 436.264 821.122C436.771 821.451 437.402 821.615 438.158 821.615L442.464 821.615L442.464 823.055L437.638 823.055C436.944 823.055 436.415 823.166 436.051 823.389C435.678 823.611 435.491 823.966 435.491 824.455C435.491 825.051 435.749 825.513 436.264 825.842C436.771 826.171 437.402 826.335 438.158 826.335L442.464 826.335L442.464 827.775ZM445.131 814.713L434.464 814.713L434.464 813.433L435.504 813.433L435.504 813.113C435.184 812.97 434.9 812.717 434.651 812.353C434.393 811.988 434.264 811.499 434.264 810.886C434.264 810.202 434.438 809.619 434.784 809.139C435.122 808.659 435.607 808.295 436.238 808.046C436.869 807.788 437.611 807.659 438.464 807.659C439.309 807.659 440.047 807.788 440.678 808.046C441.309 808.295 441.798 808.659 442.144 809.139C442.491 809.61 442.664 810.184 442.664 810.859C442.664 811.402 442.558 811.842 442.344 812.179C442.131 812.517 441.851 812.775 441.504 812.953L441.504 813.273L445.131 813.273L445.131 814.713ZM441.464 811.139C441.464 810.49 441.202 809.993 440.678 809.646C440.153 809.299 439.415 809.126 438.464 809.126C437.513 809.126 436.775 809.299 436.251 809.646C435.727 809.993 435.464 810.49 435.464 811.139C435.464 811.806 435.74 812.335 436.291 812.726C436.842 813.117 437.567 813.313 438.464 813.313C439.362 813.313 440.087 813.117 440.638 812.726C441.189 812.335 441.464 811.806 441.464 811.139ZM442.464 805.329C442.224 805.525 441.935 805.685 441.598 805.809C441.26 805.925 440.753 805.982 440.078 805.982L431.798 805.982L431.798 804.542L439.891 804.542C440.602 804.542 441.135 804.467 441.491 804.316C441.847 804.156 442.144 803.965 442.384 803.742L442.464 803.742L442.464 805.329ZM442.664 799.141C442.664 800.315 442.282 801.208 441.518 801.821C440.744 802.426 439.727 802.728 438.464 802.728C437.629 802.728 436.9 802.595 436.278 802.328C435.647 802.053 435.153 801.653 434.798 801.128C434.442 800.595 434.264 799.937 434.264 799.155C434.264 798.061 434.62 797.23 435.331 796.661C436.042 796.084 437.073 795.795 438.424 795.795L438.838 795.795L438.838 801.328C439.62 801.284 440.264 801.084 440.771 800.728C441.269 800.364 441.518 799.83 441.518 799.128C441.518 798.621 441.375 798.213 441.091 797.901C440.807 797.59 440.411 797.368 439.904 797.235L439.904 795.875C440.447 795.99 440.927 796.181 441.344 796.448C441.753 796.715 442.078 797.07 442.318 797.515C442.549 797.959 442.664 798.501 442.664 799.141ZM437.798 801.315L437.798 797.195C437.024 797.221 436.433 797.408 436.024 797.755C435.615 798.101 435.411 798.573 435.411 799.168C435.411 799.799 435.62 800.297 436.038 800.661C436.455 801.017 437.042 801.235 437.798 801.315ZM444.464 794.787L444.384 794.787C444.055 794.592 443.735 794.414 443.424 794.254C443.122 794.094 442.824 793.952 442.531 793.827C442.478 794.023 442.38 794.192 442.238 794.334C442.087 794.476 441.882 794.547 441.624 794.547C441.358 794.547 441.144 794.467 440.984 794.307C440.815 794.139 440.731 793.899 440.731 793.587C440.731 793.276 440.824 793.041 441.011 792.881C441.198 792.712 441.447 792.627 441.758 792.627C442.095 792.627 442.482 792.716 442.918 792.894C443.362 793.072 443.878 793.33 444.464 793.667L444.464 794.787ZM468.664 1035.17C468.664 1035.86 468.491 1036.44 468.144 1036.92C467.798 1037.4 467.313 1037.77 466.691 1038.03C466.06 1038.28 465.318 1038.4 464.464 1038.4C463.611 1038.4 462.873 1038.28 462.251 1038.03C461.62 1037.77 461.131 1037.4 460.784 1036.92C460.438 1036.43 460.264 1035.84 460.264 1035.15C460.264 1034.54 460.393 1034.06 460.651 1033.71C460.9 1033.34 461.184 1033.09 461.504 1032.95L461.504 1032.63L460.464 1032.63L460.464 1031.35L468.464 1031.35L468.464 1032.63L467.424 1032.63L467.424 1032.95C467.744 1033.09 468.033 1033.34 468.291 1033.71C468.54 1034.07 468.664 1034.56 468.664 1035.17ZM467.464 1034.92C467.464 1034.25 467.189 1033.72 466.638 1033.33C466.087 1032.94 465.362 1032.75 464.464 1032.75C463.567 1032.75 462.842 1032.94 462.291 1033.33C461.74 1033.72 461.464 1034.25 461.464 1034.92C461.464 1035.57 461.727 1036.07 462.251 1036.41C462.775 1036.76 463.513 1036.93 464.464 1036.93C465.415 1036.93 466.153 1036.76 466.678 1036.41C467.202 1036.07 467.464 1035.57 467.464 1034.92ZM468.464 1029.06L460.464 1029.06L460.464 1027.78L461.664 1027.78L461.664 1027.46C461.22 1027.31 460.878 1027.04 460.638 1026.67C460.389 1026.3 460.264 1025.82 460.264 1025.24C460.264 1024.31 460.553 1023.63 461.131 1023.22C461.7 1022.79 462.433 1022.58 463.331 1022.58L468.464 1022.58L468.464 1024.02L463.638 1024.02C462.944 1024.02 462.415 1024.14 462.051 1024.39C461.678 1024.64 461.491 1025.03 461.491 1025.55C461.491 1026.2 461.749 1026.71 462.264 1027.07C462.771 1027.43 463.402 1027.62 464.158 1027.62L468.464 1027.62L468.464 1029.06ZM468.664 1014.5C468.664 1015.19 468.491 1015.77 468.144 1016.25C467.798 1016.73 467.313 1017.1 466.691 1017.35C466.06 1017.6 465.318 1017.73 464.464 1017.73C463.611 1017.73 462.873 1017.6 462.251 1017.35C461.62 1017.1 461.131 1016.73 460.784 1016.25C460.438 1015.76 460.264 1015.17 460.264 1014.47C460.264 1013.87 460.393 1013.39 460.651 1013.03C460.9 1012.67 461.184 1012.42 461.504 1012.27L461.504 1011.95L460.464 1011.95L460.464 1010.67L468.464 1010.67L468.464 1011.95L467.424 1011.95L467.424 1012.27C467.744 1012.42 468.033 1012.67 468.291 1013.03C468.54 1013.4 468.664 1013.89 468.664 1014.5ZM467.464 1014.25C467.464 1013.58 467.189 1013.05 466.638 1012.66C466.087 1012.27 465.362 1012.07 464.464 1012.07C463.567 1012.07 462.842 1012.27 462.291 1012.66C461.74 1013.05 461.464 1013.58 461.464 1014.25C461.464 1014.9 461.727 1015.39 462.251 1015.74C462.775 1016.09 463.513 1016.26 464.464 1016.26C465.415 1016.26 466.153 1016.09 466.678 1015.74C467.202 1015.39 467.464 1014.9 467.464 1014.25ZM468.464 1008.36L460.464 1008.36L460.464 1007.08L461.824 1007.08L461.824 1006.76C461.602 1006.7 461.38 1006.61 461.158 1006.48C460.935 1006.34 460.753 1006.13 460.611 1005.84C460.46 1005.54 460.384 1005.13 460.384 1004.6L460.384 1004.33L461.744 1004.33L461.744 1004.73C461.744 1005.53 461.953 1006.1 462.371 1006.42C462.78 1006.75 463.424 1006.92 464.304 1006.92L468.464 1006.92L468.464 1008.36ZM468.464 1001.79C468.224 1001.99 467.935 1002.15 467.598 1002.27C467.26 1002.39 466.753 1002.44 466.078 1002.44L461.584 1002.44L461.584 1003.54L460.464 1003.54L460.464 1002.42L458.464 1002.42L458.464 1001.03L460.464 1001.03L460.464 999.671L461.584 999.671L461.584 1001L465.851 1001C466.58 1001 467.127 1000.93 467.491 1000.78C467.847 1000.62 468.144 1000.43 468.384 1000.2L468.464 1000.2L468.464 1001.79ZM468.464 998.119L460.464 998.119L460.464 996.679L468.464 996.679L468.464 998.119ZM459.344 997.399C459.344 997.675 459.264 997.892 459.104 998.052C458.944 998.203 458.731 998.279 458.464 998.279C458.198 998.279 457.984 998.203 457.824 998.052C457.664 997.892 457.584 997.675 457.584 997.399C457.584 997.115 457.664 996.897 457.824 996.746C457.984 996.595 458.198 996.519 458.464 996.519C458.731 996.519 458.944 996.595 459.104 996.746C459.264 996.897 459.344 997.115 459.344 997.399ZM468.664 991.771C468.664 992.509 468.535 993.118 468.278 993.598C468.011 994.078 467.669 994.438 467.251 994.678C466.824 994.918 466.375 995.051 465.904 995.078L465.904 993.665C466.171 993.638 466.433 993.553 466.691 993.411C466.94 993.269 467.144 993.06 467.304 992.785C467.464 992.509 467.544 992.158 467.544 991.731C467.544 991.26 467.447 990.896 467.251 990.638C467.047 990.38 466.78 990.251 466.451 990.251C466.167 990.251 465.927 990.353 465.731 990.558C465.527 990.753 465.349 991.06 465.198 991.478L464.864 992.425C464.704 992.851 464.531 993.238 464.344 993.585C464.149 993.922 463.909 994.193 463.624 994.398C463.331 994.602 462.962 994.705 462.518 994.705C461.833 994.705 461.287 994.46 460.878 993.971C460.469 993.482 460.264 992.811 460.264 991.958C460.264 991.345 460.371 990.838 460.584 990.438C460.798 990.029 461.091 989.718 461.464 989.505C461.829 989.291 462.242 989.167 462.704 989.131L462.704 990.491C462.367 990.527 462.064 990.66 461.798 990.891C461.522 991.122 461.384 991.5 461.384 992.025C461.384 992.442 461.478 992.762 461.664 992.985C461.842 993.207 462.087 993.318 462.398 993.318C462.7 993.318 462.949 993.211 463.144 992.998C463.34 992.785 463.518 992.465 463.678 992.038L463.998 991.091C464.158 990.665 464.335 990.282 464.531 989.945C464.718 989.607 464.953 989.345 465.238 989.158C465.522 988.962 465.887 988.865 466.331 988.865C467.015 988.865 467.575 989.113 468.011 989.611C468.447 990.109 468.664 990.829 468.664 991.771ZM468.464 986.181C468.224 986.377 467.935 986.537 467.598 986.661C467.26 986.777 466.753 986.835 466.078 986.835L461.584 986.835L461.584 987.928L460.464 987.928L460.464 986.808L458.464 986.808L458.464 985.421L460.464 985.421L460.464 984.061L461.584 984.061L461.584 985.395L465.851 985.395C466.58 985.395 467.127 985.319 467.491 985.168C467.847 985.008 468.144 984.817 468.384 984.595L468.464 984.595L468.464 986.181ZM468.464 978.413L460.544 979.893L460.464 979.893L460.464 978.533L467.264 977.266L467.264 977L460.464 975.573L460.464 973.253L467.264 971.813L467.264 971.546L460.464 970.293L460.464 969.013L460.544 969.013L468.464 970.493L468.464 972.826L461.611 974.266L461.611 974.64L468.464 976.08L468.464 978.413ZM468.464 967.306L460.464 967.306L460.464 965.866L468.464 965.866L468.464 967.306ZM459.344 966.586C459.344 966.862 459.264 967.08 459.104 967.24C458.944 967.391 458.731 967.466 458.464 967.466C458.198 967.466 457.984 967.391 457.824 967.24C457.664 967.08 457.584 966.862 457.584 966.586C457.584 966.302 457.664 966.084 457.824 965.933C457.984 965.782 458.198 965.706 458.464 965.706C458.731 965.706 458.944 965.782 459.104 965.933C459.264 966.084 459.344 966.302 459.344 966.586ZM468.464 962.572C468.224 962.768 467.935 962.928 467.598 963.052C467.26 963.168 466.753 963.225 466.078 963.225L461.584 963.225L461.584 964.319L460.464 964.319L460.464 963.199L458.464 963.199L458.464 961.812L460.464 961.812L460.464 960.452L461.584 960.452L461.584 961.785L465.851 961.785C466.58 961.785 467.127 961.71 467.491 961.559C467.847 961.399 468.144 961.208 468.384 960.985L468.464 960.985L468.464 962.572ZM468.464 958.9L457.798 958.9L457.798 957.46L461.504 957.46L461.504 957.14C461.104 956.945 460.798 956.678 460.584 956.34C460.371 956.002 460.264 955.576 460.264 955.06C460.264 954.145 460.553 953.478 461.131 953.06C461.7 952.634 462.433 952.42 463.331 952.42L468.464 952.42L468.464 953.86L463.638 953.86C462.944 953.86 462.415 953.985 462.051 954.234C461.678 954.482 461.491 954.869 461.491 955.394C461.491 956.042 461.749 956.549 462.264 956.914C462.771 957.278 463.402 957.46 464.158 957.46L468.464 957.46L468.464 958.9ZM468.664 944.345C468.664 945.03 468.491 945.612 468.144 946.092C467.798 946.572 467.313 946.941 466.691 947.199C466.06 947.447 465.318 947.572 464.464 947.572C463.611 947.572 462.873 947.447 462.251 947.199C461.62 946.941 461.131 946.572 460.784 946.092C460.438 945.603 460.264 945.012 460.264 944.319C460.264 943.714 460.393 943.234 460.651 942.879C460.9 942.514 461.184 942.261 461.504 942.119L461.504 941.799L460.464 941.799L460.464 940.519L468.464 940.519L468.464 941.799L467.424 941.799L467.424 942.119C467.744 942.261 468.033 942.514 468.291 942.879C468.54 943.243 468.664 943.732 468.664 944.345ZM467.464 944.092C467.464 943.425 467.189 942.896 466.638 942.505C466.087 942.114 465.362 941.919 464.464 941.919C463.567 941.919 462.842 942.114 462.291 942.505C461.74 942.896 461.464 943.425 461.464 944.092C461.464 944.741 461.727 945.239 462.251 945.585C462.775 945.932 463.513 946.105 464.464 946.105C465.415 946.105 466.153 945.932 466.678 945.585C467.202 945.239 467.464 944.741 467.464 944.092ZM468.464 934.439C468.224 934.634 467.935 934.794 467.598 934.919C467.26 935.034 466.753 935.092 466.078 935.092L457.798 935.092L457.798 933.652L465.891 933.652C466.602 933.652 467.135 933.576 467.491 933.425C467.847 933.265 468.144 933.074 468.384 932.852L468.464 932.852L468.464 934.439ZM468.664 928.237C468.664 929.455 468.287 930.362 467.531 930.957C466.767 931.544 465.744 931.837 464.464 931.837C463.184 931.837 462.167 931.544 461.411 930.957C460.647 930.362 460.264 929.455 460.264 928.237C460.264 927.02 460.647 926.117 461.411 925.531C462.167 924.935 463.184 924.637 464.464 924.637C465.744 924.637 466.767 924.935 467.531 925.531C468.287 926.117 468.664 927.02 468.664 928.237ZM467.491 928.237C467.491 927.5 467.22 926.962 466.678 926.624C466.135 926.277 465.398 926.104 464.464 926.104C463.531 926.104 462.793 926.277 462.251 926.624C461.709 926.962 461.438 927.5 461.438 928.237C461.438 928.975 461.709 929.517 462.251 929.864C462.793 930.202 463.531 930.371 464.464 930.371C465.398 930.371 466.135 930.202 466.678 929.864C467.22 929.517 467.491 928.975 467.491 928.237ZM468.464 921.505L460.544 923.932L460.464 923.932L460.464 922.492L467.264 920.479L467.264 920.159L460.464 918.145L460.464 916.812L460.544 916.812L468.464 919.239L468.464 921.505ZM468.664 912.391C468.664 913.565 468.282 914.458 467.518 915.071C466.744 915.676 465.727 915.978 464.464 915.978C463.629 915.978 462.9 915.845 462.278 915.578C461.647 915.303 461.153 914.903 460.798 914.378C460.442 913.845 460.264 913.187 460.264 912.405C460.264 911.311 460.62 910.48 461.331 909.911C462.042 909.334 463.073 909.045 464.424 909.045L464.838 909.045L464.838 914.578C465.62 914.534 466.264 914.334 466.771 913.978C467.269 913.614 467.518 913.08 467.518 912.378C467.518 911.871 467.375 911.463 467.091 911.151C466.807 910.84 466.411 910.618 465.904 910.485L465.904 909.125C466.447 909.24 466.927 909.431 467.344 909.698C467.753 909.965 468.078 910.32 468.318 910.765C468.549 911.209 468.664 911.751 468.664 912.391ZM463.798 914.565L463.798 910.445C463.024 910.471 462.433 910.658 462.024 911.005C461.615 911.351 461.411 911.823 461.411 912.418C461.411 913.049 461.62 913.547 462.038 913.911C462.455 914.267 463.042 914.485 463.798 914.565ZM468.464 903.661L461.584 903.661L461.584 904.834L460.464 904.834L460.464 903.661L459.944 903.661C459.544 903.661 459.18 903.594 458.851 903.461C458.522 903.328 458.26 903.101 458.064 902.781C457.869 902.461 457.771 902.025 457.771 901.474C457.771 901.279 457.784 901.11 457.811 900.968L458.958 900.968C458.931 901.057 458.918 901.19 458.918 901.368C458.918 901.759 459.015 902.008 459.211 902.114C459.398 902.221 459.647 902.274 459.958 902.274L460.464 902.274L460.464 900.968L461.584 900.968L461.584 902.274L468.464 902.274L468.464 903.661ZM468.664 896.362C468.664 897.58 468.287 898.487 467.531 899.082C466.767 899.669 465.744 899.962 464.464 899.962C463.184 899.962 462.167 899.669 461.411 899.082C460.647 898.487 460.264 897.58 460.264 896.362C460.264 895.145 460.647 894.242 461.411 893.656C462.167 893.06 463.184 892.762 464.464 892.762C465.744 892.762 466.767 893.06 467.531 893.656C468.287 894.242 468.664 895.145 468.664 896.362ZM467.491 896.362C467.491 895.625 467.22 895.087 466.678 894.749C466.135 894.402 465.398 894.229 464.464 894.229C463.531 894.229 462.793 894.402 462.251 894.749C461.709 895.087 461.438 895.625 461.438 896.362C461.438 897.1 461.709 897.642 462.251 897.989C462.793 898.327 463.531 898.496 464.464 898.496C465.398 898.496 466.135 898.327 466.678 897.989C467.22 897.642 467.491 897.1 467.491 896.362ZM468.464 890.983L460.464 890.983L460.464 889.703L461.824 889.703L461.824 889.383C461.602 889.33 461.38 889.236 461.158 889.103C460.935 888.97 460.753 888.756 460.611 888.463C460.46 888.17 460.384 887.756 460.384 887.223L460.384 886.956L461.744 886.956L461.744 887.356C461.744 888.156 461.953 888.721 462.371 889.05C462.78 889.378 463.424 889.543 464.304 889.543L468.464 889.543L468.464 890.983ZM468.664 879.533C468.664 880.217 468.491 880.799 468.144 881.279C467.798 881.759 467.313 882.128 466.691 882.386C466.06 882.635 465.318 882.759 464.464 882.759C463.611 882.759 462.873 882.635 462.251 882.386C461.62 882.128 461.131 881.759 460.784 881.279C460.438 880.79 460.264 880.199 460.264 879.506C460.264 878.902 460.393 878.422 460.651 878.066C460.9 877.702 461.184 877.448 461.504 877.306L461.504 876.986L460.464 876.986L460.464 875.706L468.464 875.706L468.464 876.986L467.424 876.986L467.424 877.306C467.744 877.448 468.033 877.702 468.291 878.066C468.54 878.43 468.664 878.919 468.664 879.533ZM467.464 879.279C467.464 878.613 467.189 878.084 466.638 877.693C466.087 877.302 465.362 877.106 464.464 877.106C463.567 877.106 462.842 877.302 462.291 877.693C461.74 878.084 461.464 878.613 461.464 879.279C461.464 879.928 461.727 880.426 462.251 880.773C462.775 881.119 463.513 881.293 464.464 881.293C465.415 881.293 466.153 881.119 466.678 880.773C467.202 880.426 467.464 879.928 467.464 879.279ZM468.464 872.829C468.224 873.025 467.935 873.185 467.598 873.309C467.26 873.425 466.753 873.482 466.078 873.482L457.798 873.482L457.798 872.042L465.891 872.042C466.602 872.042 467.135 871.967 467.491 871.816C467.847 871.656 468.144 871.465 468.384 871.242L468.464 871.242L468.464 872.829ZM468.464 869.095C468.224 869.29 467.935 869.45 467.598 869.575C467.26 869.69 466.753 869.748 466.078 869.748L457.798 869.748L457.798 868.308L465.891 868.308C466.602 868.308 467.135 868.233 467.491 868.081C467.847 867.921 468.144 867.73 468.384 867.508L468.464 867.508L468.464 869.095ZM468.464 861.744C468.224 861.94 467.935 862.1 467.598 862.224C467.26 862.34 466.753 862.397 466.078 862.397L461.584 862.397L461.584 863.491L460.464 863.491L460.464 862.371L458.464 862.371L458.464 860.984L460.464 860.984L460.464 859.624L461.584 859.624L461.584 860.957L465.851 860.957C466.58 860.957 467.127 860.882 467.491 860.731C467.847 860.571 468.144 860.38 468.384 860.157L468.464 860.157L468.464 861.744ZM468.464 858.072L457.798 858.072L457.798 856.632L461.504 856.632L461.504 856.312C461.104 856.117 460.798 855.85 460.584 855.512C460.371 855.174 460.264 854.748 460.264 854.232C460.264 853.317 460.553 852.65 461.131 852.232C461.7 851.805 462.433 851.592 463.331 851.592L468.464 851.592L468.464 853.032L463.638 853.032C462.944 853.032 462.415 853.157 462.051 853.405C461.678 853.654 461.491 854.041 461.491 854.565C461.491 855.214 461.749 855.721 462.264 856.085C462.771 856.45 463.402 856.632 464.158 856.632L468.464 856.632L468.464 858.072ZM468.664 846.72C468.664 847.405 468.491 847.987 468.144 848.467C467.798 848.947 467.313 849.316 466.691 849.574C466.06 849.822 465.318 849.947 464.464 849.947C463.611 849.947 462.873 849.822 462.251 849.574C461.62 849.316 461.131 848.947 460.784 848.467C460.438 847.978 460.264 847.387 460.264 846.694C460.264 846.089 460.393 845.609 460.651 845.254C460.9 844.889 461.184 844.636 461.504 844.494L461.504 844.174L460.464 844.174L460.464 842.894L468.464 842.894L468.464 844.174L467.424 844.174L467.424 844.494C467.744 844.636 468.033 844.889 468.291 845.254C468.54 845.618 468.664 846.107 468.664 846.72ZM467.464 846.467C467.464 845.8 467.189 845.271 466.638 844.88C466.087 844.489 465.362 844.294 464.464 844.294C463.567 844.294 462.842 844.489 462.291 844.88C461.74 845.271 461.464 845.8 461.464 846.467C461.464 847.116 461.727 847.614 462.251 847.96C462.775 848.307 463.513 848.48 464.464 848.48C465.415 848.48 466.153 848.307 466.678 847.96C467.202 847.614 467.464 847.116 467.464 846.467ZM468.464 839.603C468.224 839.799 467.935 839.959 467.598 840.083C467.26 840.199 466.753 840.257 466.078 840.257L461.584 840.257L461.584 841.35L460.464 841.35L460.464 840.23L458.464 840.23L458.464 838.843L460.464 838.843L460.464 837.483L461.584 837.483L461.584 838.817L465.851 838.817C466.58 838.817 467.127 838.741 467.491 838.59C467.847 838.43 468.144 838.239 468.384 838.017L468.464 838.017L468.464 839.603ZM468.664 830.115C468.664 830.853 468.535 831.462 468.278 831.942C468.011 832.422 467.669 832.782 467.251 833.022C466.824 833.262 466.375 833.395 465.904 833.422L465.904 832.008C466.171 831.982 466.433 831.897 466.691 831.755C466.94 831.613 467.144 831.404 467.304 831.128C467.464 830.853 467.544 830.502 467.544 830.075C467.544 829.604 467.447 829.239 467.251 828.982C467.047 828.724 466.78 828.595 466.451 828.595C466.167 828.595 465.927 828.697 465.731 828.902C465.527 829.097 465.349 829.404 465.198 829.822L464.864 830.768C464.704 831.195 464.531 831.582 464.344 831.928C464.149 832.266 463.909 832.537 463.624 832.742C463.331 832.946 462.962 833.048 462.518 833.048C461.833 833.048 461.287 832.804 460.878 832.315C460.469 831.826 460.264 831.155 460.264 830.302C460.264 829.688 460.371 829.182 460.584 828.782C460.798 828.373 461.091 828.062 461.464 827.848C461.829 827.635 462.242 827.511 462.704 827.475L462.704 828.835C462.367 828.871 462.064 829.004 461.798 829.235C461.522 829.466 461.384 829.844 461.384 830.368C461.384 830.786 461.478 831.106 461.664 831.328C461.842 831.551 462.087 831.662 462.398 831.662C462.7 831.662 462.949 831.555 463.144 831.342C463.34 831.128 463.518 830.808 463.678 830.382L463.998 829.435C464.158 829.008 464.335 828.626 464.531 828.288C464.718 827.951 464.953 827.688 465.238 827.502C465.522 827.306 465.887 827.208 466.331 827.208C467.015 827.208 467.575 827.457 468.011 827.955C468.447 828.453 468.664 829.173 468.664 830.115ZM468.464 825.525L460.464 825.525L460.464 824.245L461.678 824.245L461.678 823.925C461.224 823.801 460.878 823.565 460.638 823.219C460.389 822.863 460.264 822.414 460.264 821.872C460.264 821.294 460.393 820.823 460.651 820.459C460.9 820.094 461.242 819.827 461.678 819.659L461.678 819.339C461.224 819.187 460.878 818.93 460.638 818.565C460.389 818.192 460.264 817.721 460.264 817.152C460.264 816.272 460.553 815.636 461.131 815.245C461.7 814.845 462.433 814.645 463.331 814.645L468.464 814.645L468.464 816.085L463.638 816.085C462.944 816.085 462.415 816.196 462.051 816.419C461.678 816.641 461.491 816.996 461.491 817.485C461.491 818.081 461.749 818.543 462.264 818.872C462.771 819.201 463.402 819.365 464.158 819.365L468.464 819.365L468.464 820.805L463.638 820.805C462.944 820.805 462.415 820.916 462.051 821.139C461.678 821.361 461.491 821.716 461.491 822.205C461.491 822.801 461.749 823.263 462.264 823.592C462.771 823.921 463.402 824.085 464.158 824.085L468.464 824.085L468.464 825.525ZM468.464 812.463L460.464 812.463L460.464 811.023L468.464 811.023L468.464 812.463ZM459.344 811.743C459.344 812.018 459.264 812.236 459.104 812.396C458.944 812.547 458.731 812.623 458.464 812.623C458.198 812.623 457.984 812.547 457.824 812.396C457.664 812.236 457.584 812.018 457.584 811.743C457.584 811.458 457.664 811.24 457.824 811.089C457.984 810.938 458.198 810.863 458.464 810.863C458.731 810.863 458.944 810.938 459.104 811.089C459.264 811.24 459.344 811.458 459.344 811.743ZM468.464 808.142C468.224 808.337 467.935 808.497 467.598 808.622C467.26 808.737 466.753 808.795 466.078 808.795L457.798 808.795L457.798 807.355L465.891 807.355C466.602 807.355 467.135 807.279 467.491 807.128C467.847 806.968 468.144 806.777 468.384 806.555L468.464 806.555L468.464 808.142ZM468.664 801.954C468.664 803.127 468.282 804.021 467.518 804.634C466.744 805.238 465.727 805.541 464.464 805.541C463.629 805.541 462.9 805.407 462.278 805.141C461.647 804.865 461.153 804.465 460.798 803.941C460.442 803.407 460.264 802.75 460.264 801.967C460.264 800.874 460.62 800.043 461.331 799.474C462.042 798.896 463.073 798.607 464.424 798.607L464.838 798.607L464.838 804.141C465.62 804.096 466.264 803.896 466.771 803.541C467.269 803.176 467.518 802.643 467.518 801.941C467.518 801.434 467.375 801.025 467.091 800.714C466.807 800.403 466.411 800.181 465.904 800.047L465.904 798.687C466.447 798.803 466.927 798.994 467.344 799.261C467.753 799.527 468.078 799.883 468.318 800.327C468.549 800.772 468.664 801.314 468.664 801.954ZM463.798 804.127L463.798 800.007C463.024 800.034 462.433 800.221 462.024 800.567C461.615 800.914 461.411 801.385 461.411 801.981C461.411 802.612 461.62 803.11 462.038 803.474C462.455 803.83 463.042 804.047 463.798 804.127ZM468.544 796.4C468.544 796.702 468.464 796.938 468.304 797.107C468.135 797.276 467.904 797.36 467.611 797.36C467.318 797.36 467.091 797.276 466.931 797.107C466.762 796.938 466.678 796.702 466.678 796.4C466.678 796.089 466.762 795.853 466.931 795.693C467.091 795.524 467.318 795.44 467.611 795.44C467.904 795.44 468.135 795.524 468.304 795.693C468.464 795.853 468.544 796.089 468.544 796.4Z" fill="#D9D9D9"/>
<path d="M83.0133 92V81.6H86.72C88.5689 81.6 89.9111 82.0578 90.7467 82.9733C91.5822 83.88 92 85.1556 92 86.8C92 88.4444 91.5822 89.7244 90.7467 90.64C89.9111 91.5467 88.5689 92 86.72 92H83.0133ZM85.2533 90.2667H86.5867C87.2711 90.2667 87.84 90.1644 88.2933 89.96C88.7556 89.7467 89.1022 89.3911 89.3333 88.8933C89.5644 88.3867 89.68 87.6889 89.68 86.8C89.68 85.9111 89.5644 85.2178 89.3333 84.72C89.1022 84.2133 88.7556 83.8578 88.2933 83.6533C87.84 83.44 87.2711 83.3333 86.5867 83.3333H85.2533V90.2667ZM96.1129 92.16C95.3663 92.16 94.7529 91.9822 94.2729 91.6267C93.7929 91.2622 93.4374 90.7644 93.2063 90.1333C92.9751 89.5022 92.8596 88.7867 92.8596 87.9867C92.8596 87.16 92.9751 86.4356 93.2063 85.8133C93.4463 85.1911 93.8063 84.7067 94.2862 84.36C94.7663 84.0133 95.3707 83.84 96.0996 83.84C96.6596 83.84 97.1174 83.9511 97.4729 84.1733C97.8374 84.3867 98.1129 84.6756 98.2996 85.04H98.6196V84H100.62V92H98.6196V90.96H98.2996C98.1129 91.2978 97.8418 91.5822 97.4862 91.8133C97.1307 92.0444 96.6729 92.16 96.1129 92.16ZM96.6729 90.64C97.2151 90.64 97.6462 90.4044 97.9662 89.9333C98.2951 89.4533 98.4596 88.8089 98.4596 88C98.4596 87.1822 98.2951 86.5378 97.9662 86.0667C97.6462 85.5956 97.2151 85.36 96.6729 85.36C96.184 85.36 95.7974 85.5822 95.5129 86.0267C95.2374 86.4622 95.0996 87.12 95.0996 88C95.0996 88.88 95.2374 89.5422 95.5129 89.9867C95.7974 90.4222 96.184 90.64 96.6729 90.64ZM102.596 92V84H104.596V85.2H104.916C105.076 84.8 105.32 84.4667 105.649 84.2C105.987 83.9333 106.48 83.8 107.129 83.8C108.018 83.8 108.685 84.08 109.129 84.64C109.574 85.2 109.796 85.96 109.796 86.92V92H107.636V87.28C107.636 86.7289 107.538 86.3067 107.343 86.0133C107.147 85.7111 106.827 85.56 106.383 85.56C105.867 85.56 105.467 85.7644 105.183 86.1733C104.898 86.5733 104.756 87.0756 104.756 87.68V92H102.596ZM111.659 92V84H113.819V92H111.659ZM112.739 83.08C112.356 83.08 112.067 82.9822 111.872 82.7867C111.676 82.5822 111.579 82.32 111.579 82C111.579 81.68 111.676 81.4222 111.872 81.2267C112.067 81.0222 112.356 80.92 112.739 80.92C113.121 80.92 113.41 81.0222 113.605 81.2267C113.801 81.4222 113.899 81.68 113.899 82C113.899 82.32 113.801 82.5822 113.605 82.7867C113.41 82.9822 113.121 83.08 112.739 83.08ZM119.146 92.2C117.884 92.2 116.919 91.8222 116.253 91.0667C115.595 90.3111 115.266 89.2844 115.266 87.9867C115.266 87.1156 115.413 86.3689 115.706 85.7467C116.008 85.1244 116.444 84.6444 117.013 84.3067C117.59 83.9689 118.293 83.8 119.119 83.8C120.31 83.8 121.221 84.16 121.852 84.88C122.492 85.6 122.812 86.6578 122.812 88.0533V88.5067H117.372C117.417 89.1822 117.59 89.7156 117.893 90.1067C118.204 90.4889 118.621 90.68 119.146 90.68C119.564 90.68 119.897 90.5556 120.146 90.3067C120.404 90.0578 120.573 89.7689 120.653 89.44H122.706C122.626 89.9289 122.448 90.3822 122.173 90.8C121.897 91.2178 121.51 91.5556 121.013 91.8133C120.515 92.0711 119.893 92.2 119.146 92.2ZM117.372 87.1467H120.706C120.67 86.5422 120.519 86.0756 120.253 85.7467C119.986 85.4089 119.604 85.24 119.106 85.24C118.617 85.24 118.221 85.4 117.919 85.72C117.626 86.0311 117.444 86.5067 117.372 87.1467ZM124.859 92C124.61 91.7156 124.432 91.3956 124.325 91.04C124.228 90.6756 124.179 90.2 124.179 89.6133V81.3333H126.339V89.3867C126.339 90.0622 126.414 90.5911 126.565 90.9733C126.717 91.3467 126.917 91.6622 127.165 91.92V92H124.859ZM131.623 92V81.6H133.809V85.6H134.609L137.596 81.6H140.076V81.68L136.476 86.3733L140.663 91.92V92H137.996L134.609 87.36H133.809V92L131.623 92ZM143.66 92.16C142.913 92.16 142.3 91.9822 141.82 91.6267C141.34 91.2622 140.984 90.7644 140.753 90.1333C140.522 89.5022 140.406 88.7867 140.406 87.9867C140.406 87.16 140.522 86.4356 140.753 85.8133C140.993 85.1911 141.353 84.7067 141.833 84.36C142.313 84.0133 142.918 83.84 143.646 83.84C144.206 83.84 144.664 83.9511 145.02 84.1733C145.384 84.3867 145.66 84.6756 145.846 85.04H146.166V84H148.166V92H146.166V90.96H145.846C145.66 91.2978 145.389 91.5822 145.033 91.8133C144.678 92.0444 144.22 92.16 143.66 92.16ZM144.22 90.64C144.762 90.64 145.193 90.4044 145.513 89.9333C145.842 89.4533 146.006 88.8089 146.006 88C146.006 87.1822 145.842 86.5378 145.513 86.0667C145.193 85.5956 144.762 85.36 144.22 85.36C143.731 85.36 143.344 85.5822 143.06 86.0267C142.784 86.4622 142.646 87.12 142.646 88C142.646 88.88 142.784 89.5422 143.06 89.9867C143.344 90.4222 143.731 90.64 144.22 90.64ZM150.143 92V84H152.143V85.2H152.463C152.623 84.8 152.867 84.4667 153.196 84.2C153.534 83.9333 154.027 83.8 154.676 83.8C155.565 83.8 156.232 84.08 156.676 84.64C157.121 85.2 157.343 85.96 157.343 86.92V92H155.183V87.28C155.183 86.7289 155.085 86.3067 154.89 86.0133C154.694 85.7111 154.374 85.56 153.93 85.56C153.414 85.56 153.014 85.7644 152.73 86.1733C152.445 86.5733 152.303 87.0756 152.303 87.68V92H150.143ZM162.592 94.8667C161.845 94.8667 161.241 94.7733 160.779 94.5867C160.325 94.4089 159.974 94.1822 159.725 93.9067C159.485 93.6311 159.317 93.3511 159.219 93.0667C159.121 92.7822 159.063 92.5333 159.045 92.32H161.152C161.197 92.5778 161.321 92.8133 161.525 93.0267C161.73 93.24 162.077 93.3467 162.565 93.3467C163.117 93.3467 163.53 93.1822 163.805 92.8533C164.081 92.5333 164.219 92.0756 164.219 91.48V90.5333H163.899C163.774 90.9156 163.543 91.2178 163.205 91.44C162.868 91.6533 162.423 91.76 161.872 91.76C160.832 91.76 160.037 91.4 159.485 90.68C158.943 89.9511 158.672 88.9822 158.672 87.7733C158.672 87 158.792 86.3156 159.032 85.72C159.272 85.1156 159.632 84.6444 160.112 84.3067C160.592 83.9689 161.192 83.8 161.912 83.8C162.463 83.8 162.903 83.9067 163.232 84.12C163.57 84.3244 163.819 84.6044 163.979 84.96H164.299V84H166.299V91.4C166.299 92.5022 165.997 93.3556 165.392 93.96C164.788 94.5644 163.854 94.8667 162.592 94.8667ZM162.459 90.24C162.983 90.24 163.392 90.0178 163.685 89.5733C163.988 89.1289 164.139 88.5289 164.139 87.7733C164.139 87.0178 163.988 86.4222 163.685 85.9867C163.392 85.5422 162.983 85.32 162.459 85.32C161.97 85.32 161.579 85.5244 161.285 85.9333C161.001 86.3422 160.859 86.9556 160.859 87.7733C160.859 88.6089 161.001 89.2311 161.285 89.64C161.579 90.04 161.97 90.24 162.459 90.24Z" fill="#D9D9D9"/>
<path d="M92 342.525L81.6 342.525L81.6 339.125C81.6 337.33 82.0578 336.032 82.9733 335.232C83.88 334.423 85.1556 334.019 86.8 334.019C88.4444 334.019 89.7244 334.423 90.64 335.232C91.5467 336.032 92 337.33 92 339.125L92 342.525ZM90.7467 341.019L90.7467 339.259C90.7467 338.361 90.6044 337.641 90.32 337.099C90.0267 336.547 89.5867 336.152 89 335.912C88.4133 335.663 87.68 335.539 86.8 335.539C85.9111 335.539 85.1778 335.663 84.6 335.912C84.0133 336.152 83.5778 336.547 83.2933 337.099C83 337.641 82.8533 338.361 82.8533 339.259L82.8533 341.019L90.7467 341.019ZM92.2 329.633C92.2 330.317 92.0267 330.9 91.68 331.38C91.3333 331.86 90.8489 332.228 90.2267 332.486C89.5956 332.735 88.8533 332.86 88 332.86C87.1467 332.86 86.4089 332.735 85.7867 332.486C85.1556 332.228 84.6667 331.86 84.32 331.38C83.9733 330.891 83.8 330.3 83.8 329.606C83.8 329.002 83.9289 328.522 84.1867 328.166C84.4356 327.802 84.72 327.548 85.04 327.406L85.04 327.086L84 327.086L84 325.806L92 325.806L92 327.086L90.96 327.086L90.96 327.406C91.28 327.548 91.5689 327.802 91.8267 328.166C92.0756 328.531 92.2 329.02 92.2 329.633ZM91 329.38C91 328.713 90.7244 328.184 90.1733 327.793C89.6222 327.402 88.8978 327.206 88 327.206C87.1022 327.206 86.3778 327.402 85.8267 327.793C85.2756 328.184 85 328.713 85 329.38C85 330.028 85.2622 330.526 85.7867 330.873C86.3111 331.22 87.0489 331.393 88 331.393C88.9511 331.393 89.6889 331.22 90.2133 330.873C90.7378 330.526 91 330.028 91 329.38ZM92 323.516L84 323.516L84 322.236L85.2 322.236L85.2 321.916C84.7556 321.765 84.4133 321.503 84.1733 321.129C83.9244 320.756 83.8 320.28 83.8 319.703C83.8 318.769 84.0889 318.094 84.6667 317.676C85.2356 317.249 85.9689 317.036 86.8667 317.036L92 317.036L92 318.476L87.1733 318.476C86.48 318.476 85.9511 318.6 85.5867 318.849C85.2133 319.098 85.0267 319.485 85.0267 320.009C85.0267 320.658 85.2844 321.165 85.8 321.529C86.3067 321.894 86.9378 322.076 87.6933 322.076L92 322.076L92 323.516ZM92 314.844L84 314.844L84 313.404L92 313.404L92 314.844ZM82.88 314.124C82.88 314.4 82.8 314.618 82.64 314.778C82.48 314.929 82.2667 315.004 82 315.004C81.7333 315.004 81.52 314.929 81.36 314.778C81.2 314.618 81.12 314.4 81.12 314.124C81.12 313.84 81.2 313.622 81.36 313.471C81.52 313.32 81.7333 313.244 82 313.244C82.2667 313.244 82.48 313.32 82.64 313.471C82.8 313.622 82.88 313.84 82.88 314.124ZM92.2 308.07C92.2 309.243 91.8178 310.136 91.0533 310.75C90.28 311.354 89.2622 311.656 88 311.656C87.1644 311.656 86.4356 311.523 85.8133 311.256C85.1822 310.981 84.6889 310.581 84.3333 310.056C83.9778 309.523 83.8 308.865 83.8 308.083C83.8 306.99 84.1556 306.159 84.8667 305.59C85.5778 305.012 86.6089 304.723 87.96 304.723L88.3733 304.723L88.3733 310.256C89.1556 310.212 89.8 310.012 90.3067 309.656C90.8044 309.292 91.0533 308.759 91.0533 308.056C91.0533 307.55 90.9111 307.141 90.6267 306.83C90.3422 306.519 89.9467 306.296 89.44 306.163L89.44 304.803C89.9822 304.919 90.4622 305.11 90.88 305.376C91.2889 305.643 91.6133 305.999 91.8533 306.443C92.0844 306.888 92.2 307.43 92.2 308.07ZM87.3333 310.243L87.3333 306.123C86.56 306.15 85.9689 306.336 85.56 306.683C85.1511 307.03 84.9467 307.501 84.9467 308.096C84.9467 308.728 85.1556 309.225 85.5733 309.59C85.9911 309.945 86.5778 310.163 87.3333 310.243ZM92 302.383C91.76 302.578 91.4711 302.738 91.1333 302.863C90.7956 302.978 90.2889 303.036 89.6133 303.036L81.3333 303.036L81.3333 301.596L89.4267 301.596C90.1378 301.596 90.6711 301.52 91.0267 301.369C91.3822 301.209 91.68 301.018 91.92 300.796L92 300.796L92 302.383ZM92 295.978L81.6 295.978L81.6 294.512L86 294.512L86 293.712L81.6 290.218L81.6 288.552L81.68 288.552L86.5733 292.538L91.92 288.218L92 288.218L92 290.032L87.3333 293.712L87.3333 294.512L92 294.512L92 295.978ZM92.2 284.945C92.2 285.63 92.0267 286.212 91.68 286.692C91.3333 287.172 90.8489 287.541 90.2267 287.799C89.5956 288.048 88.8533 288.172 88 288.172C87.1467 288.172 86.4089 288.048 85.7867 287.799C85.1556 287.541 84.6667 287.172 84.32 286.692C83.9733 286.203 83.8 285.612 83.8 284.919C83.8 284.314 83.9289 283.834 84.1867 283.479C84.4356 283.114 84.72 282.861 85.04 282.719L85.04 282.399L84 282.399L84 281.119L92 281.119L92 282.399L90.96 282.399L90.96 282.719C91.28 282.861 91.5689 283.114 91.8267 283.479C92.0756 283.843 92.2 284.332 92.2 284.945ZM91 284.692C91 284.025 90.7244 283.497 90.1733 283.105C89.6222 282.714 88.8978 282.519 88 282.519C87.1022 282.519 86.3778 282.714 85.8267 283.105C85.2756 283.497 85 284.025 85 284.692C85 285.341 85.2622 285.839 85.7867 286.185C86.3111 286.532 87.0489 286.705 88 286.705C88.9511 286.705 89.6889 286.532 90.2133 286.185C90.7378 285.839 91 285.341 91 284.692ZM92 278.829L84 278.829L84 277.549L85.2 277.549L85.2 277.229C84.7556 277.077 84.4133 276.815 84.1733 276.442C83.9244 276.069 83.8 275.593 83.8 275.015C83.8 274.082 84.0889 273.406 84.6667 272.989C85.2356 272.562 85.9689 272.349 86.8667 272.349L92 272.349L92 273.789L87.1733 273.789C86.48 273.789 85.9511 273.913 85.5867 274.162C85.2133 274.411 85.0267 274.797 85.0267 275.322C85.0267 275.971 85.2844 276.477 85.8 276.842C86.3067 277.206 86.9378 277.389 87.6933 277.389L92 277.389L92 278.829ZM94.8533 267.143C94.8533 267.712 94.7822 268.192 94.64 268.583C94.4978 268.974 94.3111 269.294 94.08 269.543C93.8578 269.792 93.6133 269.979 93.3467 270.103C93.08 270.228 92.8178 270.308 92.56 270.343L92.56 268.903C92.8622 268.85 93.1333 268.681 93.3733 268.397C93.6133 268.112 93.7333 267.672 93.7333 267.077C93.7333 266.437 93.5556 265.943 93.2 265.597C92.8444 265.241 92.2711 265.063 91.48 265.063L90.5867 265.063L90.5867 265.383C90.9422 265.526 91.24 265.77 91.48 266.117C91.7111 266.454 91.8267 266.917 91.8267 267.503C91.8267 268.49 91.4667 269.272 90.7467 269.85C90.0267 270.419 89.04 270.703 87.7867 270.703C86.9689 270.703 86.2622 270.579 85.6667 270.33C85.0711 270.072 84.6133 269.708 84.2933 269.237C83.9644 268.757 83.8 268.188 83.8 267.53C83.8 266.917 83.9244 266.446 84.1733 266.117C84.4222 265.779 84.7111 265.534 85.04 265.383L85.04 265.063L84 265.063L84 263.783L91.56 263.783C92.6267 263.783 93.44 264.072 94 264.65C94.5689 265.228 94.8533 266.059 94.8533 267.143ZM90.6267 267.33C90.6267 266.646 90.3644 266.117 89.84 265.743C89.3067 265.37 88.6311 265.183 87.8133 265.183C86.9778 265.183 86.3022 265.374 85.7867 265.757C85.2622 266.13 85 266.65 85 267.317C85 267.939 85.2444 268.419 85.7333 268.757C86.2222 269.094 86.9156 269.263 87.8133 269.263C88.7111 269.263 89.4044 269.099 89.8933 268.77C90.3822 268.432 90.6267 267.952 90.6267 267.33ZM85.2 262.638L85.12 262.638C84.7911 262.442 84.4756 262.264 84.1733 262.104C83.8622 261.944 83.56 261.802 83.2667 261.678C83.2133 261.873 83.1156 262.042 82.9733 262.184C82.8222 262.327 82.6178 262.398 82.36 262.398C82.0933 262.398 81.88 262.318 81.72 262.158C81.5511 261.989 81.4667 261.749 81.4667 261.438C81.4667 261.127 81.56 260.891 81.7467 260.731C81.9333 260.562 82.1822 260.478 82.4933 260.478C82.8311 260.478 83.2222 260.567 83.6667 260.744C84.1022 260.922 84.6133 261.18 85.2 261.518L85.2 262.638ZM92.2 256.075C92.2 256.812 92.0711 257.421 91.8133 257.901C91.5467 258.381 91.2044 258.741 90.7867 258.981C90.36 259.221 89.9111 259.355 89.44 259.381L89.44 257.968C89.7067 257.941 89.9689 257.857 90.2267 257.715C90.4756 257.572 90.68 257.363 90.84 257.088C91 256.812 91.08 256.461 91.08 256.035C91.08 255.563 90.9822 255.199 90.7867 254.941C90.5822 254.683 90.3156 254.555 89.9867 254.555C89.7022 254.555 89.4622 254.657 89.2667 254.861C89.0622 255.057 88.8844 255.363 88.7333 255.781L88.4 256.728C88.24 257.155 88.0667 257.541 87.88 257.888C87.6844 258.226 87.4444 258.497 87.16 258.701C86.8667 258.906 86.4978 259.008 86.0533 259.008C85.3689 259.008 84.8222 258.763 84.4133 258.275C84.0044 257.786 83.8 257.115 83.8 256.261C83.8 255.648 83.9067 255.141 84.12 254.741C84.3333 254.332 84.6267 254.021 85 253.808C85.3644 253.595 85.7778 253.47 86.24 253.435L86.24 254.795C85.9022 254.83 85.6 254.963 85.3333 255.195C85.0578 255.426 84.92 255.803 84.92 256.328C84.92 256.746 85.0133 257.066 85.2 257.288C85.3778 257.51 85.6222 257.621 85.9333 257.621C86.2356 257.621 86.4844 257.515 86.68 257.301C86.8756 257.088 87.0533 256.768 87.2133 256.341L87.5333 255.395C87.6933 254.968 87.8711 254.586 88.0667 254.248C88.2533 253.91 88.4889 253.648 88.7733 253.461C89.0578 253.266 89.4222 253.168 89.8667 253.168C90.5511 253.168 91.1111 253.417 91.5467 253.915C91.9822 254.412 92.2 255.132 92.2 256.075ZM92 248.228L81.6 248.228L81.6 244.522C81.6 243.197 81.8756 242.233 82.4267 241.628C82.9689 241.015 83.6978 240.708 84.6133 240.708C85.5289 240.708 86.2622 241.015 86.8133 241.628C87.3556 242.233 87.6267 243.197 87.6267 244.522L87.6267 246.735L92 246.735L92 248.228ZM86.4267 246.735L86.4267 244.588C86.4267 243.753 86.28 243.153 85.9867 242.788C85.6933 242.415 85.2356 242.228 84.6133 242.228C83.9911 242.228 83.5333 242.415 83.24 242.788C82.9467 243.153 82.8 243.753 82.8 244.588L82.8 246.735L86.4267 246.735ZM92.2 236.025C92.2 237.243 91.8222 238.15 91.0667 238.745C90.3022 239.332 89.28 239.625 88 239.625C86.72 239.625 85.7022 239.332 84.9467 238.745C84.1822 238.15 83.8 237.243 83.8 236.025C83.8 234.807 84.1822 233.905 84.9467 233.319C85.7022 232.723 86.72 232.425 88 232.425C89.28 232.425 90.3022 232.723 91.0667 233.319C91.8222 233.905 92.2 234.807 92.2 236.025ZM91.0267 236.025C91.0267 235.287 90.7556 234.75 90.2133 234.412C89.6711 234.065 88.9333 233.892 88 233.892C87.0667 233.892 86.3289 234.065 85.7867 234.412C85.2444 234.75 84.9733 235.287 84.9733 236.025C84.9733 236.763 85.2444 237.305 85.7867 237.652C86.3289 237.99 87.0667 238.159 88 238.159C88.9333 238.159 89.6711 237.99 90.2133 237.652C90.7556 237.305 91.0267 236.763 91.0267 236.025ZM92 230.646L84 230.646L84 229.366L85.36 229.366L85.36 229.046C85.1378 228.992 84.9156 228.899 84.6933 228.766C84.4711 228.632 84.2889 228.419 84.1467 228.126C83.9956 227.832 83.92 227.419 83.92 226.886L83.92 226.619L85.28 226.619L85.28 227.019C85.28 227.819 85.4889 228.383 85.9067 228.712C86.3156 229.041 86.96 229.206 87.84 229.206L92 229.206L92 230.646ZM92 224.079C91.76 224.274 91.4711 224.434 91.1333 224.559C90.7956 224.674 90.2889 224.732 89.6133 224.732L85.12 224.732L85.12 225.825L84 225.825L84 224.705L82 224.705L82 223.319L84 223.319L84 221.959L85.12 221.959L85.12 223.292L89.3867 223.292C90.1156 223.292 90.6622 223.216 91.0267 223.065C91.3822 222.905 91.68 222.714 91.92 222.492L92 222.492L92 224.079ZM92 219.98L85.12 219.98L85.12 221.153L84 221.153L84 219.98L83.48 219.98C83.08 219.98 82.7156 219.913 82.3867 219.78C82.0578 219.647 81.7955 219.42 81.6 219.1C81.4044 218.78 81.3067 218.344 81.3067 217.793C81.3067 217.598 81.32 217.429 81.3467 217.287L82.4933 217.287C82.4667 217.376 82.4533 217.509 82.4533 217.687C82.4533 218.078 82.5511 218.327 82.7467 218.433C82.9333 218.54 83.1822 218.593 83.4933 218.593L84 218.593L84 217.287L85.12 217.287L85.12 218.593L92 218.593L92 219.98ZM92.2 212.681C92.2 213.899 91.8222 214.806 91.0667 215.401C90.3022 215.988 89.28 216.281 88 216.281C86.72 216.281 85.7022 215.988 84.9467 215.401C84.1822 214.806 83.8 213.899 83.8 212.681C83.8 211.464 84.1822 210.561 84.9467 209.975C85.7022 209.379 86.72 209.081 88 209.081C89.28 209.081 90.3022 209.379 91.0667 209.975C91.8222 210.561 92.2 211.464 92.2 212.681ZM91.0267 212.681C91.0267 211.944 90.7555 211.406 90.2133 211.068C89.6711 210.721 88.9333 210.548 88 210.548C87.0667 210.548 86.3289 210.721 85.7867 211.068C85.2444 211.406 84.9733 211.944 84.9733 212.681C84.9733 213.419 85.2444 213.961 85.7867 214.308C86.3289 214.646 87.0667 214.815 88 214.815C88.9333 214.815 89.6711 214.646 90.2133 214.308C90.7555 213.961 91.0267 213.419 91.0267 212.681ZM92 206.742C91.76 206.937 91.4711 207.097 91.1333 207.222C90.7955 207.337 90.2889 207.395 89.6133 207.395L81.3333 207.395L81.3333 205.955L89.4267 205.955C90.1378 205.955 90.6711 205.88 91.0267 205.729C91.3822 205.569 91.68 205.377 91.92 205.155L92 205.155L92 206.742ZM92 203.594L84 203.594L84 202.154L92 202.154L92 203.594ZM82.88 202.874C82.88 203.15 82.8 203.368 82.64 203.528C82.48 203.679 82.2667 203.754 82 203.754C81.7333 203.754 81.52 203.679 81.36 203.528C81.2 203.368 81.12 203.15 81.12 202.874C81.12 202.59 81.2 202.372 81.36 202.221C81.52 202.07 81.7333 201.994 82 201.994C82.2667 201.994 82.48 202.07 82.64 202.221C82.8 202.372 82.88 202.59 82.88 202.874ZM92.2 196.806C92.2 198.024 91.8222 198.931 91.0667 199.526C90.3022 200.113 89.28 200.406 88 200.406C86.72 200.406 85.7022 200.113 84.9467 199.526C84.1822 198.931 83.8 198.024 83.8 196.806C83.8 195.589 84.1822 194.686 84.9467 194.1C85.7022 193.504 86.72 193.206 88 193.206C89.28 193.206 90.3022 193.504 91.0667 194.1C91.8222 194.686 92.2 195.589 92.2 196.806ZM91.0267 196.806C91.0267 196.069 90.7555 195.531 90.2133 195.193C89.6711 194.846 88.9333 194.673 88 194.673C87.0667 194.673 86.3289 194.846 85.7867 195.193C85.2444 195.531 84.9733 196.069 84.9733 196.806C84.9733 197.544 85.2444 198.086 85.7867 198.433C86.3289 198.771 87.0667 198.94 88 198.94C88.9333 198.94 89.6711 198.771 90.2133 198.433C90.7555 198.086 91.0267 197.544 91.0267 196.806Z" fill="#D9D9D9"/>
<rect x="1590" y="979" width="60" height="60" fill="#252525"/>
<path d="M1618.06 1022.05H1628.93L1630.28 1028H1610.49V990.147H1618.06V1022.05Z" fill="white"/>
<path fill-rule="evenodd" clip-rule="evenodd" d="M1620 142C1636.57 142 1650 128.569 1650 112C1650 95.4315 1636.57 82 1620 82C1603.43 82 1590 95.4315 1590 112C1590 128.569 1603.43 142 1620 142ZM1615.89 98.3925C1615.89 100.664 1617.35 102.07 1619.68 102.07C1622 102.07 1623.46 100.664 1623.46 98.3925C1623.46 96.1213 1622 94.7154 1619.68 94.7154C1617.35 94.7154 1615.89 96.1213 1615.89 98.3925ZM1616 105.26V131H1623.36V105.26H1616Z" fill="#D9D9D9"/>
</g>
<rect x="2" y="2" width="1728" height="1117" rx="16" stroke="#D9D9D9" stroke-width="4"/>
<defs>
<clipPath id="clip0_778_217">
<rect x="2" y="2" width="1728" height="1117" rx="16" fill="white"/>
</clipPath>
</defs>
</svg>
