<svg width="21" height="26" viewBox="0 0 21 26" fill="none" xmlns="http://www.w3.org/2000/svg">
<mask id="path-1-outside-1_906_924" maskUnits="userSpaceOnUse" x="-0.457031" y="-0.433105" width="22" height="26" fill="black">
<rect fill="white" x="-0.457031" y="-0.433105" width="22" height="26"/>
<path fill-rule="evenodd" clip-rule="evenodd" d="M3.64297 11.9874H3.64121V6.84098V6.84094C3.64121 5.07034 5.07657 3.63498 6.84718 3.63498C7.17586 3.63498 7.49299 3.68444 7.79153 3.77632C8.74816 2.43871 10.3144 1.56689 12.0843 1.56689C14.9971 1.56689 17.3584 3.92817 17.3584 6.84095C17.3584 6.86026 17.3583 6.87955 17.3581 6.89881V7.79484H17.3583V10.2743V11.9873V14.2991H17.3584C18.5175 14.2991 19.4571 15.2387 19.4571 16.3978C19.4571 17.5568 18.5175 18.4965 17.3584 18.4965C17.3021 18.4965 17.2462 18.4942 17.1909 18.4899C16.5022 21.5496 13.7683 23.8351 10.5006 23.8351C7.23289 23.8351 4.49898 21.5495 3.81028 18.4898C3.75466 18.4942 3.69842 18.4965 3.64166 18.4965C2.48258 18.4965 1.54297 17.5568 1.54297 16.3978C1.54297 15.2387 2.48258 14.2991 3.64166 14.2991H3.64297V11.9874Z"/>
</mask>
<path fill-rule="evenodd" clip-rule="evenodd" d="M3.64297 11.9874H3.64121V6.84098V6.84094C3.64121 5.07034 5.07657 3.63498 6.84718 3.63498C7.17586 3.63498 7.49299 3.68444 7.79153 3.77632C8.74816 2.43871 10.3144 1.56689 12.0843 1.56689C14.9971 1.56689 17.3584 3.92817 17.3584 6.84095C17.3584 6.86026 17.3583 6.87955 17.3581 6.89881V7.79484H17.3583V10.2743V11.9873V14.2991H17.3584C18.5175 14.2991 19.4571 15.2387 19.4571 16.3978C19.4571 17.5568 18.5175 18.4965 17.3584 18.4965C17.3021 18.4965 17.2462 18.4942 17.1909 18.4899C16.5022 21.5496 13.7683 23.8351 10.5006 23.8351C7.23289 23.8351 4.49898 21.5495 3.81028 18.4898C3.75466 18.4942 3.69842 18.4965 3.64166 18.4965C2.48258 18.4965 1.54297 17.5568 1.54297 16.3978C1.54297 15.2387 2.48258 14.2991 3.64166 14.2991H3.64297V11.9874Z" fill="#694732"/>
<path d="M3.64121 11.9874H2.44121V13.1874H3.64121V11.9874ZM3.64297 11.9874H4.84297V10.7874H3.64297V11.9874ZM7.79153 3.77632L7.43853 4.92323L8.26473 5.17752L8.76759 4.47438L7.79153 3.77632ZM17.3581 6.89881L16.1581 6.88592V6.89881H17.3581ZM17.3581 7.79484H16.1581V8.99484H17.3581V7.79484ZM17.3583 7.79484H18.5583V6.59484H17.3583V7.79484ZM17.3583 14.2991H16.1583V15.4991H17.3583V14.2991ZM17.1909 18.4899L17.2854 17.2936L16.2486 17.2117L16.0202 18.2264L17.1909 18.4899ZM3.81028 18.4898L4.981 18.2263L4.75249 17.2111L3.71517 17.2936L3.81028 18.4898ZM3.64297 14.2991V15.4991H4.84297V14.2991H3.64297ZM3.64121 13.1874H3.64297V10.7874H3.64121V13.1874ZM2.44121 6.84098V11.9874H4.84121V6.84098H2.44121ZM2.44121 6.84094V6.84098H4.84121V6.84094H2.44121ZM6.84718 2.43498C4.41383 2.43498 2.44121 4.40759 2.44121 6.84094H4.84121C4.84121 5.73308 5.73932 4.83498 6.84718 4.83498V2.43498ZM8.14453 2.62942C7.73291 2.50273 7.29685 2.43498 6.84718 2.43498V4.83498C7.05487 4.83498 7.25306 4.86615 7.43853 4.92323L8.14453 2.62942ZM12.0843 0.366894C9.91078 0.366894 7.9877 1.43916 6.81546 3.07826L8.76759 4.47438C9.50861 3.43825 10.7181 2.76689 12.0843 2.76689V0.366894ZM18.5584 6.84095C18.5584 3.26543 15.6598 0.366894 12.0843 0.366894V2.76689C14.3343 2.76689 16.1584 4.59091 16.1584 6.84095H18.5584ZM18.558 6.9117C18.5582 6.88815 18.5584 6.86457 18.5584 6.84095H16.1584C16.1584 6.85595 16.1583 6.87094 16.1581 6.88592L18.558 6.9117ZM18.5581 7.79484V6.89881H16.1581V7.79484H18.5581ZM17.3583 6.59484H17.3581V8.99484H17.3583V6.59484ZM18.5583 10.2743V7.79484H16.1583V10.2743H18.5583ZM18.5583 11.9873V10.2743H16.1583V11.9873H18.5583ZM18.5583 14.2991V11.9873H16.1583V14.2991H18.5583ZM17.3584 13.0991H17.3583V15.4991H17.3584V13.0991ZM20.6571 16.3978C20.6571 14.576 19.1802 13.0991 17.3584 13.0991V15.4991C17.8548 15.4991 18.2571 15.9014 18.2571 16.3978H20.6571ZM17.3584 19.6965C19.1802 19.6965 20.6571 18.2196 20.6571 16.3978H18.2571C18.2571 16.8941 17.8548 17.2965 17.3584 17.2965V19.6965ZM17.0965 19.6862C17.1831 19.693 17.2705 19.6965 17.3584 19.6965V17.2965C17.3336 17.2965 17.3093 17.2955 17.2854 17.2936L17.0965 19.6862ZM10.5006 25.0351C14.3416 25.0351 17.5524 22.3487 18.3617 18.7534L16.0202 18.2264C15.4521 20.7504 13.195 22.6351 10.5006 22.6351V25.0351ZM2.63957 18.7533C3.44883 22.3486 6.65957 25.0351 10.5006 25.0351V22.6351C7.80621 22.6351 5.54913 20.7504 4.981 18.2263L2.63957 18.7533ZM3.64166 19.6965C3.73018 19.6965 3.81815 19.6929 3.9054 19.686L3.71517 17.2936C3.69117 17.2955 3.66666 17.2965 3.64166 17.2965V19.6965ZM0.342969 16.3978C0.342969 18.2196 1.81984 19.6965 3.64166 19.6965V17.2965C3.14532 17.2965 2.74297 16.8941 2.74297 16.3978H0.342969ZM3.64166 13.0991C1.81984 13.0991 0.342969 14.576 0.342969 16.3978H2.74297C2.74297 15.9014 3.14532 15.4991 3.64166 15.4991V13.0991ZM3.64297 13.0991H3.64166V15.4991H3.64297V13.0991ZM2.44297 11.9874V14.2991H4.84297V11.9874H2.44297Z" fill="#E8E6E3" mask="url(#path-1-outside-1_906_924)"/>
<circle cx="6.84708" cy="6.84091" r="3.20596" fill="#101010"/>
<circle cx="12.0841" cy="6.84095" r="5.27405" fill="#101010"/>
<rect x="3.64111" y="6.841" width="13.7168" height="5.14641" fill="#101010"/>
<circle cx="17.3585" cy="16.3978" r="2.09869" fill="#B68262"/>
<circle cx="3.64166" cy="16.3978" r="2.09869" fill="#B68262"/>
<path d="M3.64307 10.2743C3.64307 9.32321 4.41409 8.55219 5.3652 8.55219H15.6363C16.5874 8.55219 17.3584 9.32321 17.3584 10.2743V16.9774C17.3584 20.7648 14.2881 23.8351 10.5007 23.8351V23.8351C6.71334 23.8351 3.64307 20.7648 3.64307 16.9774V10.2743Z" fill="#B68262"/>
<circle cx="10.5004" cy="18.02" r="1.22357" fill="#A86D49"/>
<rect x="10.0991" y="14.8989" width="0.803183" height="2.82719" rx="0.401592" fill="#A86D49"/>
<path fill-rule="evenodd" clip-rule="evenodd" d="M5.15332 13.8724V15.1631C5.15332 16.3371 6.10505 17.2888 7.27906 17.2888C8.45307 17.2888 9.4048 16.3371 9.4048 15.1631V13.8724H5.15332ZM11.7547 13.8724V15.1631C11.7547 16.3371 12.7065 17.2888 13.8805 17.2888C15.0545 17.2888 16.0062 16.3371 16.0062 15.1631V13.8724H11.7547Z" fill="#EDF5FF"/>
<path fill-rule="evenodd" clip-rule="evenodd" d="M6.21582 13.8724V14.518C6.21582 15.1052 6.69188 15.5813 7.27914 15.5813C7.86639 15.5813 8.34245 15.1052 8.34245 14.518V13.8724H6.21582ZM12.8172 13.8724V14.518C12.8172 15.1052 13.2933 15.5813 13.8805 15.5813C14.4678 15.5813 14.9439 15.1052 14.9439 14.518V13.8724H12.8172Z" fill="black"/>
<path d="M16.7282 13.4134L11.6286 13.4134L11.6289 12.3073" stroke="#101010" stroke-linejoin="bevel"/>
<path d="M4.42444 13.4703L9.52966 13.4703L9.52966 12.3203" stroke="#101010" stroke-linejoin="bevel"/>
<path d="M9.54199 16.184C9.65059 15.9844 9.99268 15.5854 10.4922 15.5854C10.9917 15.5854 11.3942 15.9844 11.533 16.184" stroke="black" stroke-width="0.2"/>
<path d="M4.99334 14.4713H9.26349C9.50235 14.4713 9.68797 14.6793 9.66092 14.9166L9.37164 17.4541C9.34861 17.6561 9.1776 17.8088 8.97422 17.8088H5.32238C5.12136 17.8088 4.95156 17.6595 4.92571 17.4602L4.59666 14.9228C4.56563 14.6834 4.752 14.4713 4.99334 14.4713Z" stroke="black" stroke-width="0.2"/>
<path d="M11.7712 14.4713H16.0413C16.2802 14.4713 16.4658 14.6793 16.4387 14.9166L16.1495 17.4541C16.1264 17.6561 15.9554 17.8088 15.752 17.8088H12.1002C11.8992 17.8088 11.7294 17.6595 11.7035 17.4602L11.3745 14.9228C11.3435 14.6834 11.5298 14.4713 11.7712 14.4713Z" stroke="black" stroke-width="0.2"/>
<path d="M8.71729 14.47L12.2826 14.47" stroke="#F38534" stroke-width="0.6"/>
<path fill-rule="evenodd" clip-rule="evenodd" d="M17.3584 11.9874H3.64307V7.79486H17.3584V11.9874Z" fill="#2C2C2C"/>
<g style="mix-blend-mode:soft-light" opacity="0.13">
<mask id="mask0_906_924" style="mask-type:alpha" maskUnits="userSpaceOnUse" x="3" y="7" width="15" height="5">
<path fill-rule="evenodd" clip-rule="evenodd" d="M17.3584 11.9874H3.64307V7.79486H17.3584V11.9874Z" fill="#F38534"/>
</mask>
<g mask="url(#mask0_906_924)">
<path d="M3.51433 6.42155L3.56134 6.40895C3.74357 6.36013 3.92037 6.36945 4.09175 6.43692L4.23035 6.9542L4.2186 6.95735C4.0366 6.90115 3.85693 6.89679 3.67959 6.94429C3.49836 6.99285 3.2594 7.11988 2.96269 7.32538C2.96577 7.35291 2.94171 7.88227 2.8905 8.91347L2.40262 9.0442L2.38925 9.04133L2.45655 7.59961L2.33312 7.63268C2.1509 7.68151 1.97409 7.67218 1.80271 7.60469L1.6641 7.0874L1.67598 7.08422C1.85801 7.14048 2.03768 7.14484 2.215 7.09731C2.40209 7.04718 2.71117 6.87615 3.14223 6.58424C3.29527 6.50127 3.4193 6.44704 3.51433 6.42155Z" fill="black"/>
<path d="M3.32457 7.47433L4.0821 7.27135C4.08698 7.27069 4.09 7.27246 4.0911 7.27654L4.16923 7.56813C4.18527 7.62801 4.19848 7.68677 4.20885 7.74439L4.38321 7.69767C4.38809 7.69701 4.39111 7.69877 4.39221 7.70289L4.46941 7.99099C4.4698 7.99192 4.46998 7.99293 4.46992 7.99394C4.46987 7.99495 4.46957 7.99593 4.46907 7.9968C4.46857 7.99768 4.46787 7.99843 4.46702 7.99898C4.46618 7.99954 4.46522 7.9999 4.46422 8.00002L4.24727 8.05815C4.25088 8.20204 4.24391 8.30429 4.22637 8.3649C4.18758 8.50241 4.12284 8.5833 4.03216 8.60758L3.65528 8.70856C3.65435 8.70896 3.65334 8.70914 3.65233 8.70908C3.65132 8.70902 3.65034 8.70873 3.64946 8.70822C3.64858 8.70772 3.64784 8.70701 3.64728 8.70617C3.64672 8.70532 3.64637 8.70435 3.64625 8.70335L3.56905 8.41525C3.56836 8.41037 3.57016 8.40735 3.57428 8.40624L3.74863 8.35953C3.86244 8.32903 3.91604 8.25876 3.90943 8.14871L3.70664 8.20305C3.70571 8.20345 3.7047 8.20362 3.70368 8.20357C3.70267 8.20351 3.70169 8.20321 3.70081 8.20271C3.69993 8.2022 3.69919 8.20149 3.69863 8.20065C3.69807 8.1998 3.69772 8.19884 3.6976 8.19783L3.62041 7.90973C3.6197 7.90483 3.62143 7.90182 3.62562 7.90069L3.88526 7.83113C3.86622 7.74092 3.85337 7.68337 3.84669 7.65846L3.40558 7.77665C3.40465 7.77705 3.40364 7.77723 3.40264 7.77717C3.40163 7.77711 3.40065 7.77682 3.39977 7.77632C3.39889 7.77581 3.39815 7.77511 3.39759 7.77427C3.39703 7.77343 3.39668 7.77247 3.39655 7.77147L3.31935 7.48333C3.31866 7.47846 3.32039 7.47545 3.32457 7.47433Z" fill="black"/>
<path d="M4.18718 8.93174L4.23419 8.91915C4.41642 8.87032 4.59322 8.87964 4.7646 8.94711L4.9032 9.46439L4.89145 9.46754C4.70945 9.41134 4.52978 9.40699 4.35244 9.45448C4.17121 9.50304 3.93225 9.63007 3.63555 9.83557C3.63863 9.8631 3.61456 10.3925 3.56335 11.4237L3.07547 11.5544L3.0621 11.5515L3.1294 10.1098L3.00598 10.1429C2.82375 10.1917 2.64694 10.1824 2.47556 10.1149L2.33695 9.59759L2.34883 9.59441C2.53086 9.65067 2.71053 9.65503 2.88785 9.6075C3.07495 9.55737 3.38402 9.38635 3.81508 9.09444C3.96812 9.01146 4.09215 8.95723 4.18718 8.93174Z" fill="black"/>
<path d="M3.99742 9.98452L4.75496 9.78154C4.75984 9.78088 4.76285 9.78265 4.76395 9.78674L4.84208 10.0783C4.85813 10.1382 4.87133 10.197 4.8817 10.2546L5.05606 10.2079C5.06094 10.2072 5.06396 10.209 5.06506 10.2131L5.14226 10.5012C5.14266 10.5021 5.14283 10.5031 5.14277 10.5041C5.14272 10.5051 5.14242 10.5061 5.14192 10.507C5.14142 10.5079 5.14072 10.5086 5.13988 10.5092C5.13903 10.5097 5.13807 10.5101 5.13707 10.5102L4.92012 10.5683C4.92373 10.7122 4.91676 10.8145 4.89922 10.8751C4.86043 11.0126 4.7957 11.0935 4.70501 11.1178L4.32814 11.2188C4.32721 11.2192 4.32619 11.2193 4.32518 11.2193C4.32417 11.2192 4.32319 11.2189 4.32231 11.2184C4.32143 11.2179 4.32069 11.2172 4.32013 11.2164C4.31957 11.2155 4.31922 11.2145 4.3191 11.2135L4.24191 10.9254C4.24121 10.9206 4.24301 10.9175 4.24713 10.9164L4.42148 10.8697C4.53529 10.8392 4.58889 10.769 4.58228 10.6589L4.37949 10.7132C4.37856 10.7136 4.37755 10.7138 4.37654 10.7138C4.37552 10.7137 4.37454 10.7134 4.37366 10.7129C4.37279 10.7124 4.37204 10.7117 4.37148 10.7108C4.37093 10.71 4.37057 10.709 4.37046 10.708L4.29326 10.4199C4.29255 10.415 4.29429 10.412 4.29847 10.4109L4.55811 10.3413C4.53907 10.2511 4.52622 10.1936 4.51954 10.1686L4.07843 10.2868C4.0775 10.2872 4.0765 10.2874 4.07549 10.2874C4.07448 10.2873 4.0735 10.287 4.07262 10.2865C4.07175 10.286 4.071 10.2853 4.07044 10.2845C4.06988 10.2836 4.06953 10.2827 4.06941 10.2817L3.9922 9.99353C3.99151 9.98865 3.99325 9.98564 3.99742 9.98452Z" fill="black"/>
<path d="M12.3083 6.75572L12.3553 6.74312C12.5375 6.69429 12.7143 6.70361 12.8857 6.77108L13.0243 7.28837L13.0125 7.29152C12.8305 7.23531 12.6509 7.23096 12.4735 7.27846C12.2923 7.32702 12.0533 7.45405 11.7566 7.65955C11.7597 7.68707 11.7357 8.21644 11.6844 9.24763L11.1966 9.37836L11.1832 9.3755L11.2505 7.93377L11.1271 7.96685C10.9448 8.01567 10.768 8.00634 10.5967 7.93885L10.458 7.42157L10.4699 7.41839C10.652 7.47465 10.8316 7.47901 11.0089 7.43148C11.196 7.38134 11.5051 7.21032 11.9362 6.91841C12.0892 6.83543 12.2132 6.7812 12.3083 6.75572Z" fill="black"/>
<path d="M12.118 7.80856L12.8756 7.60558C12.8804 7.60492 12.8835 7.60668 12.8846 7.61077L12.9627 7.90236C12.9787 7.96224 12.9919 8.02099 13.0023 8.07862L13.1767 8.0319C13.1815 8.03123 13.1846 8.033 13.1857 8.03712L13.2629 8.32522C13.2633 8.32615 13.2634 8.32716 13.2634 8.32817C13.2633 8.32918 13.263 8.33016 13.2625 8.33103C13.262 8.33191 13.2613 8.33265 13.2605 8.33321C13.2596 8.33377 13.2587 8.33413 13.2577 8.33425L13.0407 8.39238C13.0443 8.53627 13.0374 8.63852 13.0198 8.69913C12.981 8.83664 12.9163 8.91753 12.8256 8.94181L12.4487 9.04279C12.4478 9.04319 12.4468 9.04337 12.4458 9.04331C12.4448 9.04325 12.4438 9.04296 12.4429 9.04245C12.442 9.04195 12.4413 9.04124 12.4407 9.04039C12.4402 9.03955 12.4398 9.03858 12.4397 9.03758L12.3625 8.74948C12.3618 8.7446 12.3636 8.74158 12.3677 8.74047L12.5421 8.69375C12.6559 8.66326 12.7095 8.59299 12.7029 8.48294L12.5001 8.53727C12.4992 8.53768 12.4982 8.53785 12.4971 8.53779C12.4961 8.53773 12.4951 8.53744 12.4943 8.53693C12.4934 8.53643 12.4926 8.53572 12.4921 8.53488C12.4915 8.53403 12.4912 8.53307 12.4911 8.53206L12.4139 8.24396C12.4132 8.23906 12.4149 8.23605 12.4191 8.23492L12.6787 8.16535C12.6597 8.07515 12.6468 8.01759 12.6401 7.99268L12.199 8.11088C12.1981 8.11128 12.1971 8.11146 12.1961 8.1114C12.1951 8.11134 12.1941 8.11105 12.1932 8.11054C12.1924 8.11004 12.1916 8.10934 12.191 8.1085C12.1905 8.10766 12.1901 8.1067 12.19 8.10569L12.1128 7.81756C12.1121 7.81269 12.1139 7.80968 12.118 7.80856Z" fill="black"/>
<path d="M4.86003 11.4419L4.90704 11.4293C5.08927 11.3805 5.26607 11.3898 5.43745 11.4572L5.57606 11.9745L5.5643 11.9777C5.38231 11.9215 5.20264 11.9171 5.02529 11.9646C4.84407 12.0132 4.6051 12.1402 4.3084 12.3457C4.31148 12.3732 4.28741 12.9026 4.2362 13.9338L3.74832 14.0645L3.73495 14.0617L3.80226 12.6199L3.67883 12.653C3.4966 12.7018 3.31979 12.6925 3.14841 12.625L3.00981 12.1077L3.02168 12.1045C3.20371 12.1608 3.38339 12.1652 3.5607 12.1176C3.7478 12.0675 4.05687 11.8965 4.48793 11.6046C4.64097 11.5216 4.765 11.4674 4.86003 11.4419Z" fill="black"/>
<path d="M12.9811 9.26585L13.0281 9.25325C13.2104 9.20443 13.3872 9.21375 13.5585 9.28122L13.6972 9.7985L13.6854 9.80165C13.5034 9.74545 13.3237 9.74109 13.1464 9.78859C12.9652 9.83715 12.7262 9.96418 12.4295 10.1697C12.4326 10.1972 12.4085 10.7266 12.3573 11.7578L11.8694 11.8885L11.856 11.8856L11.9234 10.4439L11.7999 10.477C11.6177 10.5258 11.4409 10.5165 11.2695 10.449L11.1309 9.9317L11.1428 9.92852C11.3248 9.98478 11.5045 9.98914 11.6818 9.94161C11.8689 9.89148 12.178 9.72045 12.609 9.42854C12.7621 9.34557 12.8861 9.29133 12.9811 9.26585Z" fill="black"/>
<path d="M12.7909 10.3187L13.5484 10.1157C13.5533 10.115 13.5563 10.1168 13.5574 10.1209L13.6355 10.4125C13.6516 10.4724 13.6648 10.5311 13.6752 10.5887L13.8495 10.542C13.8544 10.5414 13.8574 10.5431 13.8585 10.5473L13.9357 10.8354C13.9361 10.8363 13.9363 10.8373 13.9362 10.8383C13.9362 10.8393 13.9359 10.8403 13.9354 10.8412C13.9349 10.842 13.9342 10.8428 13.9333 10.8433C13.9325 10.8439 13.9315 10.8443 13.9305 10.8444L13.7136 10.9025C13.7172 11.0464 13.7102 11.1487 13.6927 11.2093C13.6539 11.3468 13.5892 11.4277 13.4985 11.4519L13.1216 11.5529C13.1207 11.5533 13.1197 11.5535 13.1186 11.5534C13.1176 11.5534 13.1166 11.5531 13.1158 11.5526C13.1149 11.5521 13.1141 11.5514 13.1136 11.5505C13.113 11.5497 13.1127 11.5487 13.1126 11.5477L13.0354 11.2596C13.0347 11.2547 13.0365 11.2517 13.0406 11.2506L13.2149 11.2039C13.3287 11.1734 13.3823 11.1031 13.3757 10.9931L13.1729 11.0474C13.172 11.0478 13.171 11.048 13.17 11.0479C13.169 11.0479 13.168 11.0476 13.1671 11.0471C13.1662 11.0466 13.1655 11.0459 13.1649 11.045C13.1644 11.0442 13.164 11.0432 13.1639 11.0422L13.0867 10.7541C13.086 10.7492 13.0877 10.7462 13.0919 10.7451L13.3516 10.6755C13.3325 10.5853 13.3197 10.5277 13.313 10.5028L12.8719 10.621C12.871 10.6214 12.87 10.6216 12.8689 10.6215C12.8679 10.6215 12.867 10.6212 12.8661 10.6207C12.8652 10.6202 12.8645 10.6195 12.8639 10.6186C12.8633 10.6178 12.863 10.6168 12.8629 10.6158L12.7857 10.3277C12.785 10.3228 12.7867 10.3198 12.7909 10.3187Z" fill="black"/>
<path d="M13.6535 11.776L13.7005 11.7634C13.8827 11.7146 14.0595 11.7239 14.2309 11.7914L14.3695 12.3087L14.3578 12.3118C14.1758 12.2556 13.9961 12.2513 13.8187 12.2988C13.6375 12.3473 13.3986 12.4744 13.1019 12.6799C13.1049 12.7074 13.0809 13.2368 13.0297 14.268L12.5418 14.3987L12.5284 14.3958L12.5957 12.9541L12.4723 12.9872C12.2901 13.036 12.1133 13.0267 11.9419 12.9592L11.8033 12.4419L11.8151 12.4387C11.9972 12.495 12.1768 12.4993 12.3542 12.4518C12.5413 12.4017 12.8503 12.2306 13.2814 11.9387C13.4344 11.8558 13.5585 11.8015 13.6535 11.776Z" fill="black"/>
<path d="M6.22136 5.69633L6.26837 5.68373C6.4506 5.63491 6.6274 5.64423 6.79878 5.7117L6.93738 6.22898L6.92563 6.23213C6.74363 6.17593 6.56396 6.17157 6.38662 6.21907C6.20539 6.26763 5.96643 6.39466 5.66973 6.60016C5.67281 6.62769 5.64874 7.15705 5.59753 8.18825L5.10965 8.31898L5.09628 8.31611L5.16358 6.87439L5.04016 6.90746C4.85793 6.95629 4.68112 6.94696 4.50974 6.87947L4.37113 6.36218L4.38301 6.359C4.56504 6.41526 4.74471 6.41962 4.92203 6.37209C5.10913 6.32196 5.4182 6.15093 5.84926 5.85902C6.0023 5.77605 6.12633 5.72182 6.22136 5.69633Z" fill="black"/>
<path d="M6.03112 6.74923L6.78865 6.54625C6.79353 6.54559 6.79655 6.54736 6.79764 6.55145L6.87577 6.84304C6.89182 6.90292 6.90503 6.96167 6.9154 7.01929L7.08975 6.97257C7.09463 6.97191 7.09765 6.97368 7.09875 6.97779L7.17595 7.2659C7.17635 7.26682 7.17652 7.26783 7.17647 7.26884C7.17641 7.26985 7.17612 7.27083 7.17561 7.27171C7.17511 7.27258 7.17441 7.27333 7.17357 7.27389C7.17273 7.27445 7.17177 7.2748 7.17076 7.27492L6.95381 7.33305C6.95742 7.47694 6.95045 7.57919 6.93291 7.63981C6.89412 7.77731 6.82939 7.85821 6.7387 7.88248L6.36183 7.98347C6.3609 7.98387 6.35989 7.98405 6.35887 7.98399C6.35786 7.98393 6.35688 7.98363 6.356 7.98313C6.35512 7.98262 6.35438 7.98191 6.35382 7.98107C6.35326 7.98022 6.35291 7.97926 6.35279 7.97825L6.2756 7.69015C6.2749 7.68528 6.2767 7.68225 6.28082 7.68115L6.45517 7.63443C6.56898 7.60393 6.62258 7.53366 6.61597 7.42361L6.41318 7.47795C6.41225 7.47835 6.41124 7.47853 6.41023 7.47847C6.40922 7.47841 6.40823 7.47811 6.40735 7.47761C6.40648 7.4771 6.40573 7.4764 6.40517 7.47555C6.40462 7.4747 6.40427 7.47374 6.40415 7.47273L6.32695 7.18463C6.32624 7.17973 6.32798 7.17672 6.33217 7.1756L6.5918 7.10603C6.57276 7.01583 6.55991 6.95827 6.55323 6.93336L6.11212 7.05155C6.11119 7.05195 6.11019 7.05213 6.10918 7.05207C6.10817 7.05201 6.10719 7.05172 6.10631 7.05122C6.10544 7.05071 6.10469 7.05001 6.10413 7.04917C6.10357 7.04833 6.10322 7.04737 6.1031 7.04637L6.02589 6.75824C6.0252 6.75336 6.02694 6.75035 6.03112 6.74923Z" fill="black"/>
<path d="M6.89421 8.20646L6.94122 8.19387C7.12345 8.14504 7.30025 8.15436 7.47163 8.22183L7.61024 8.73911L7.59848 8.74226C7.41649 8.68606 7.23682 8.68171 7.05947 8.7292C6.87825 8.77776 6.63928 8.90479 6.34258 9.11029C6.34566 9.13782 6.32159 9.66718 6.27038 10.6984L5.7825 10.8291L5.76913 10.8262L5.83644 9.38452L5.71301 9.41759C5.53078 9.46642 5.35397 9.45709 5.18259 9.3896L5.04399 8.87231L5.05586 8.86913C5.23789 8.92539 5.41757 8.92975 5.59488 8.88222C5.78198 8.83209 6.09105 8.66107 6.52211 8.36916C6.67515 8.28618 6.79918 8.23195 6.89421 8.20646Z" fill="black"/>
<path d="M6.70397 9.2593L7.4615 9.05632C7.46638 9.05566 7.4694 9.05743 7.47049 9.06152L7.54862 9.35311C7.56467 9.41299 7.57788 9.47174 7.58825 9.52936L7.7626 9.48264C7.76748 9.48198 7.7705 9.48375 7.7716 9.48787L7.8488 9.77597C7.8492 9.7769 7.84938 9.7779 7.84932 9.77891C7.84926 9.77992 7.84897 9.7809 7.84846 9.78178C7.84796 9.78265 7.84726 9.7834 7.84642 9.78396C7.84558 9.78452 7.84462 9.78487 7.84361 9.78499L7.62667 9.84312C7.63027 9.98701 7.62331 10.0893 7.60576 10.1499C7.56698 10.2874 7.50224 10.3683 7.41155 10.3926L7.03468 10.4935C7.03375 10.4939 7.03274 10.4941 7.03173 10.4941C7.03071 10.494 7.02973 10.4937 7.02885 10.4932C7.02798 10.4927 7.02723 10.492 7.02667 10.4911C7.02612 10.4903 7.02576 10.4893 7.02565 10.4883L6.94845 10.2002C6.94776 10.1953 6.94955 10.1923 6.95367 10.1912L7.12803 10.1445C7.24184 10.114 7.29543 10.0437 7.28882 9.93368L7.08603 9.98802C7.0851 9.98842 7.08409 9.9886 7.08308 9.98854C7.08207 9.98848 7.08108 9.98818 7.08021 9.98768C7.07933 9.98717 7.07858 9.98647 7.07803 9.98562C7.07747 9.98477 7.07712 9.98381 7.077 9.9828L6.9998 9.6947C6.99909 9.6898 7.00083 9.68679 7.00502 9.68567L7.26465 9.6161C7.24562 9.5259 7.23276 9.46834 7.22609 9.44343L6.78497 9.56162C6.78405 9.56202 6.78304 9.5622 6.78203 9.56214C6.78102 9.56208 6.78004 9.56179 6.77916 9.56129C6.77829 9.56079 6.77754 9.56009 6.77698 9.55924C6.77643 9.5584 6.77607 9.55744 6.77595 9.55644L6.69874 9.26831C6.69805 9.26343 6.69979 9.26042 6.70397 9.2593Z" fill="black"/>
<path d="M15.0148 6.0305L15.0618 6.0179C15.2441 5.96907 15.4209 5.97839 15.5922 6.04586L15.7308 6.56315L15.7191 6.5663C15.5371 6.51009 15.3574 6.50574 15.1801 6.55324C14.9989 6.6018 14.7599 6.72883 14.4632 6.93433C14.4663 6.96185 14.4422 7.49122 14.391 8.52241L13.9031 8.65314L13.8897 8.65028L13.957 7.20855L13.8336 7.24163C13.6514 7.29045 13.4746 7.28112 13.3032 7.21363L13.1646 6.69635L13.1765 6.69317C13.3585 6.74943 13.5382 6.75379 13.7155 6.70626C13.9026 6.65612 14.2117 6.4851 14.6427 6.19319C14.7958 6.11021 14.9198 6.05598 15.0148 6.0305Z" fill="black"/>
<path d="M14.8251 7.08328L15.5826 6.8803C15.5875 6.87964 15.5905 6.8814 15.5916 6.88549L15.6697 7.17708C15.6858 7.23696 15.699 7.29571 15.7093 7.35333L15.8837 7.30662C15.8886 7.30595 15.8916 7.30772 15.8927 7.31184L15.9699 7.59994C15.9703 7.60087 15.9705 7.60188 15.9704 7.60289C15.9704 7.60389 15.9701 7.60488 15.9696 7.60575C15.9691 7.60663 15.9684 7.60737 15.9675 7.60793C15.9667 7.60849 15.9657 7.60884 15.9647 7.60897L15.7478 7.6671C15.7514 7.81099 15.7444 7.91324 15.7269 7.97385C15.6881 8.11136 15.6233 8.19225 15.5326 8.21653L15.1558 8.31751C15.1548 8.31791 15.1538 8.31809 15.1528 8.31803C15.1518 8.31797 15.1508 8.31768 15.1499 8.31717C15.1491 8.31666 15.1483 8.31596 15.1478 8.31511C15.1472 8.31427 15.1469 8.3133 15.1467 8.3123L15.0695 8.02419C15.0688 8.01932 15.0706 8.01629 15.0748 8.01519L15.2491 7.96847C15.3629 7.93798 15.4165 7.86771 15.4099 7.75766L15.2071 7.81199C15.2062 7.81239 15.2052 7.81257 15.2042 7.81251C15.2032 7.81245 15.2022 7.81216 15.2013 7.81165C15.2004 7.81115 15.1997 7.81044 15.1991 7.8096C15.1986 7.80875 15.1982 7.80778 15.1981 7.80678L15.1209 7.51868C15.1202 7.51378 15.1219 7.51076 15.1261 7.50964L15.3857 7.44007C15.3667 7.34987 15.3539 7.29231 15.3472 7.2674L14.9061 7.3856C14.9051 7.386 14.9041 7.38618 14.9031 7.38612C14.9021 7.38606 14.9011 7.38577 14.9003 7.38526C14.8994 7.38476 14.8986 7.38406 14.8981 7.38322C14.8975 7.38238 14.8972 7.38142 14.897 7.38041L14.8198 7.09228C14.8191 7.08741 14.8209 7.0844 14.8251 7.08328Z" fill="black"/>
<path d="M7.56706 10.7166L7.61408 10.704C7.7963 10.6552 7.97311 10.6645 8.14448 10.732L8.28309 11.2492L8.27133 11.2524C8.08934 11.1962 7.90967 11.1918 7.73232 11.2393C7.5511 11.2879 7.31213 11.4149 7.01543 11.6204C7.01851 11.648 6.99444 12.1773 6.94324 13.2085L6.45535 13.3392L6.44199 13.3364L6.50929 11.8946L6.38586 11.9277C6.20363 11.9766 6.02683 11.9672 5.85544 11.8997L5.71684 11.3824L5.72871 11.3793C5.91074 11.4355 6.09042 11.4399 6.26773 11.3924C6.45483 11.3422 6.76391 11.1712 7.19496 10.8793C7.348 10.7963 7.47203 10.7421 7.56706 10.7166Z" fill="black"/>
<path d="M7.37633 11.7694L8.13386 11.5665C8.13874 11.5658 8.14176 11.5676 8.14286 11.5716L8.22099 11.8632C8.23703 11.9231 8.25024 11.9819 8.26061 12.0395L8.43496 11.9928C8.43984 11.9921 8.44286 11.9939 8.44397 11.998L8.52116 12.2861C8.52156 12.287 8.52174 12.288 8.52168 12.289C8.52162 12.2901 8.52133 12.291 8.52083 12.2919C8.52032 12.2928 8.51962 12.2935 8.51878 12.2941C8.51794 12.2946 8.51698 12.295 8.51598 12.2951L8.29903 12.3533C8.30264 12.4971 8.29567 12.5994 8.27812 12.66C8.23934 12.7975 8.1746 12.8784 8.08391 12.9027L7.70704 13.0037C7.70611 13.0041 7.7051 13.0042 7.70409 13.0042C7.70308 13.0041 7.70209 13.0038 7.70122 13.0033C7.70034 13.0028 7.69959 13.0021 7.69904 13.0013C7.69848 13.0004 7.69813 12.9995 7.69801 12.9985L7.62081 12.7104C7.62012 12.7055 7.62192 12.7025 7.62604 12.7013L7.80039 12.6546C7.9142 12.6241 7.9678 12.5539 7.96118 12.4438L7.7584 12.4982C7.75746 12.4986 7.75645 12.4987 7.75544 12.4987C7.75443 12.4986 7.75345 12.4983 7.75257 12.4978C7.75169 12.4973 7.75095 12.4966 7.75039 12.4958C7.74983 12.4949 7.74948 12.4939 7.74936 12.4929L7.67217 12.2048C7.67145 12.1999 7.67319 12.1969 7.67738 12.1958L7.93702 12.1262C7.91798 12.036 7.90512 11.9785 7.89845 11.9536L7.45734 12.0718C7.45641 12.0722 7.4554 12.0723 7.45439 12.0723C7.45338 12.0722 7.4524 12.0719 7.45153 12.0714C7.45065 12.0709 7.44991 12.0702 7.44935 12.0694C7.44879 12.0685 7.44843 12.0676 7.44831 12.0666L7.37111 11.7784C7.37041 11.7736 7.37215 11.7706 7.37633 11.7694Z" fill="black"/>
<path d="M15.6877 8.54063L15.7347 8.52803C15.9169 8.47921 16.0937 8.48853 16.2651 8.556L16.4037 9.07328L16.3919 9.07643C16.2099 9.02023 16.0303 9.01587 15.8529 9.06337C15.6717 9.11193 15.4327 9.23896 15.136 9.44446C15.1391 9.47199 15.115 10.0013 15.0638 11.0325L14.576 11.1633L14.5626 11.1604L14.6299 9.71869L14.5065 9.75176C14.3242 9.80059 14.1474 9.79126 13.976 9.72377L13.8374 9.20648L13.8493 9.2033C14.0314 9.25956 14.211 9.26392 14.3883 9.21639C14.5754 9.16626 14.8845 8.99523 15.3156 8.70332C15.4686 8.62035 15.5926 8.56612 15.6877 8.54063Z" fill="black"/>
<path d="M15.4979 9.59341L16.2554 9.39043C16.2603 9.38977 16.2633 9.39154 16.2644 9.39562L16.3426 9.68721C16.3586 9.74709 16.3718 9.80585 16.3822 9.86347L16.5565 9.81675C16.5614 9.81609 16.5644 9.81785 16.5655 9.82197L16.6427 10.1101C16.6431 10.111 16.6433 10.112 16.6433 10.113C16.6432 10.114 16.6429 10.115 16.6424 10.1159C16.6419 10.1168 16.6412 10.1175 16.6404 10.1181C16.6395 10.1186 16.6386 10.119 16.6376 10.1191L16.4206 10.1772C16.4242 10.3211 16.4173 10.4234 16.3997 10.484C16.3609 10.6215 16.2962 10.7024 16.2055 10.7267L15.8286 10.8276C15.8277 10.828 15.8267 10.8282 15.8257 10.8282C15.8247 10.8281 15.8237 10.8278 15.8228 10.8273C15.8219 10.8268 15.8212 10.8261 15.8206 10.8252C15.8201 10.8244 15.8197 10.8234 15.8196 10.8224L15.7424 10.5343C15.7417 10.5295 15.7435 10.5264 15.7476 10.5253L15.922 10.4786C16.0358 10.4481 16.0894 10.3778 16.0828 10.2678L15.88 10.3221C15.879 10.3225 15.878 10.3227 15.877 10.3226C15.876 10.3226 15.875 10.3223 15.8742 10.3218C15.8733 10.3213 15.8725 10.3206 15.872 10.3197C15.8714 10.3189 15.8711 10.3179 15.8709 10.3169L15.7937 10.0288C15.793 10.0239 15.7948 10.0209 15.799 10.0198L16.0586 9.95021C16.0396 9.86 16.0267 9.80245 16.02 9.77754L15.5789 9.89573C15.578 9.89613 15.577 9.89631 15.576 9.89625C15.575 9.89619 15.574 9.8959 15.5731 9.8954C15.5722 9.89489 15.5715 9.89419 15.5709 9.89335C15.5704 9.89251 15.57 9.89155 15.5699 9.89055L15.4927 9.60241C15.492 9.59754 15.4937 9.59453 15.4979 9.59341Z" fill="black"/>
<path d="M16.36 11.0508L16.407 11.0382C16.5893 10.9893 16.7661 10.9987 16.9375 11.0661L17.0761 11.5834L17.0643 11.5866C16.8823 11.5304 16.7026 11.526 16.5253 11.5735C16.3441 11.6221 16.1051 11.7491 15.8084 11.9546C15.8115 11.9821 15.7874 12.5115 15.7362 13.5427L15.2483 13.6734L15.235 13.6705L15.3023 12.2288L15.1788 12.2619C14.9966 12.3107 14.8198 12.3014 14.6484 12.2339L14.5098 11.7166L14.5217 11.7134C14.7037 11.7697 14.8834 11.7741 15.0607 11.7265C15.2478 11.6764 15.5569 11.5054 15.9879 11.2135C16.141 11.1305 16.265 11.0762 16.36 11.0508Z" fill="black"/>
<path d="M16.1703 12.1035L16.9278 11.9006C16.9327 11.8999 16.9357 11.9017 16.9368 11.9058L17.0149 12.1973C17.031 12.2572 17.0442 12.316 17.0546 12.3736L17.2289 12.3269C17.2338 12.3262 17.2368 12.328 17.2379 12.3321L17.3151 12.6202C17.3155 12.6211 17.3157 12.6221 17.3156 12.6232C17.3156 12.6242 17.3153 12.6251 17.3148 12.626C17.3143 12.6269 17.3136 12.6276 17.3127 12.6282C17.3119 12.6288 17.3109 12.6291 17.3099 12.6292L17.093 12.6874C17.0966 12.8313 17.0896 12.9335 17.0721 12.9941C17.0333 13.1316 16.9685 13.2125 16.8779 13.2368L16.501 13.3378C16.5001 13.3382 16.499 13.3384 16.498 13.3383C16.497 13.3382 16.496 13.3379 16.4952 13.3374C16.4943 13.3369 16.4935 13.3362 16.493 13.3354C16.4924 13.3345 16.4921 13.3336 16.492 13.3326L16.4148 13.0445C16.4141 13.0396 16.4159 13.0366 16.42 13.0355L16.5943 12.9887C16.7081 12.9582 16.7617 12.888 16.7551 12.7779L16.5523 12.8323C16.5514 12.8327 16.5504 12.8328 16.5494 12.8328C16.5484 12.8327 16.5474 12.8324 16.5465 12.8319C16.5456 12.8314 16.5449 12.8307 16.5443 12.8299C16.5438 12.829 16.5434 12.828 16.5433 12.827L16.4661 12.5389C16.4654 12.534 16.4671 12.531 16.4713 12.5299L16.731 12.4603C16.7119 12.3701 16.6991 12.3126 16.6924 12.2877L16.2513 12.4059C16.2504 12.4063 16.2493 12.4064 16.2483 12.4064C16.2473 12.4063 16.2463 12.406 16.2455 12.4055C16.2446 12.405 16.2439 12.4043 16.2433 12.4035C16.2427 12.4026 16.2424 12.4017 16.2423 12.4007L16.1651 12.1125C16.1644 12.1077 16.1661 12.1047 16.1703 12.1035Z" fill="black"/>
<path d="M9.60124 7.48106L9.64825 7.46846C9.83048 7.41964 10.0073 7.42896 10.1787 7.49643L10.3173 8.01371L10.3055 8.01686C10.1235 7.96066 9.94385 7.9563 9.7665 8.0038C9.58528 8.05236 9.34631 8.17939 9.04961 8.38489C9.05269 8.41242 9.02862 8.94178 8.97742 9.97298L8.48953 10.1037L8.47617 10.1008L8.54347 8.65912L8.42004 8.69219C8.23781 8.74102 8.061 8.73169 7.88962 8.6642L7.75102 8.14691L7.76289 8.14373C7.94492 8.19999 8.1246 8.20435 8.30191 8.15682C8.48901 8.10669 8.79809 7.93566 9.22914 7.64375C9.38218 7.56078 9.50621 7.50654 9.60124 7.48106Z" fill="black"/>
<path d="M9.411 8.5339L10.1685 8.33092C10.1734 8.33026 10.1764 8.33203 10.1775 8.33611L10.2557 8.6277C10.2717 8.68758 10.2849 8.74634 10.2953 8.80396L10.4696 8.75724C10.4745 8.75658 10.4775 8.75834 10.4786 8.76246L10.5558 9.05056C10.5562 9.05149 10.5564 9.0525 10.5563 9.05351C10.5563 9.05452 10.556 9.0555 10.5555 9.05637C10.555 9.05725 10.5543 9.058 10.5535 9.05855C10.5526 9.05911 10.5516 9.05947 10.5506 9.05959L10.3337 9.11772C10.3373 9.26161 10.3303 9.36386 10.3128 9.42447C10.274 9.56198 10.2093 9.64287 10.1186 9.66715L9.74171 9.76813C9.74078 9.76854 9.73977 9.76871 9.73876 9.76865C9.73775 9.76859 9.73676 9.7683 9.73589 9.76779C9.73501 9.76729 9.73426 9.76658 9.7337 9.76574C9.73315 9.76489 9.7328 9.76393 9.73268 9.76292L9.65548 9.47482C9.65479 9.46994 9.65659 9.46692 9.6607 9.46581L9.83506 9.4191C9.94887 9.3886 10.0025 9.31833 9.99585 9.20828L9.79306 9.26262C9.79213 9.26302 9.79112 9.26319 9.79011 9.26314C9.7891 9.26308 9.78812 9.26278 9.78724 9.26228C9.78636 9.26177 9.78561 9.26106 9.78506 9.26022C9.7845 9.25937 9.78415 9.25841 9.78403 9.2574L9.70683 8.9693C9.70612 8.9644 9.70786 8.96139 9.71205 8.96027L9.97168 8.8907C9.95265 8.80049 9.93979 8.74294 9.93312 8.71803L9.49201 8.83622C9.49108 8.83662 9.49007 8.8368 9.48906 8.83674C9.48805 8.83668 9.48707 8.83639 9.4862 8.83589C9.48532 8.83538 9.48457 8.83468 9.48402 8.83384C9.48346 8.833 9.4831 8.83204 9.48298 8.83104L9.40578 8.5429C9.40508 8.53803 9.40682 8.53502 9.411 8.5339Z" fill="black"/>
<path d="M17.7218 5.30516L17.7689 5.29256C17.9511 5.24373 18.1279 5.25305 18.2993 5.32052L18.4379 5.83781L18.4261 5.84096C18.2441 5.78475 18.0645 5.7804 17.8871 5.8279C17.7059 5.87646 17.4669 6.00349 17.1702 6.20899C17.1733 6.23651 17.1492 6.76588 17.098 7.79707L16.6101 7.9278L16.5968 7.92494L16.6641 6.48321L16.5406 6.51628C16.3584 6.56511 16.1816 6.55578 16.0102 6.48829L15.8716 5.97101L15.8835 5.96783C16.0655 6.02408 16.2452 6.02845 16.4225 5.98091C16.6096 5.93078 16.9187 5.75976 17.3497 5.46785C17.5028 5.38487 17.6268 5.33064 17.7218 5.30516Z" fill="black"/>
<path d="M10.2736 9.99119L10.3206 9.9786C10.5028 9.92977 10.6796 9.93909 10.851 10.0066L10.9896 10.5238L10.9779 10.527C10.7959 10.4708 10.6162 10.4664 10.4389 10.5139C10.2576 10.5625 10.0187 10.6895 9.72197 10.895C9.72505 10.9225 9.70099 11.4519 9.64978 12.4831L9.16189 12.6138L9.14853 12.611L9.21583 11.1692L9.0924 11.2023C8.91017 11.2511 8.73337 11.2418 8.56199 11.1743L8.42338 10.657L8.43525 10.6539C8.61729 10.7101 8.79696 10.7145 8.97427 10.6669C9.16137 10.6168 9.47045 10.4458 9.90151 10.1539C10.0545 10.0709 10.1786 10.0167 10.2736 9.99119Z" fill="black"/>
<path d="M10.0834 11.044L10.8409 10.8411C10.8458 10.8404 10.8488 10.8422 10.8499 10.8462L10.928 11.1378C10.9441 11.1977 10.9573 11.2565 10.9676 11.3141L11.142 11.2674C11.1469 11.2667 11.1499 11.2685 11.151 11.2726L11.2282 11.5607C11.2286 11.5616 11.2288 11.5626 11.2287 11.5636C11.2287 11.5646 11.2284 11.5656 11.2279 11.5665C11.2274 11.5674 11.2267 11.5681 11.2258 11.5687C11.225 11.5692 11.224 11.5696 11.223 11.5697L11.0061 11.6279C11.0097 11.7717 11.0027 11.874 10.9852 11.9346C10.9464 12.0721 10.8816 12.153 10.7909 12.1773L10.4141 12.2783C10.4131 12.2787 10.4121 12.2788 10.4111 12.2788C10.4101 12.2787 10.4091 12.2784 10.4082 12.2779C10.4074 12.2774 10.4066 12.2767 10.4061 12.2759C10.4055 12.275 10.4052 12.2741 10.405 12.2731L10.3278 11.9849C10.3272 11.9801 10.3289 11.977 10.3331 11.9759L10.5074 11.9292C10.6212 11.8987 10.6748 11.8285 10.6682 11.7184L10.4654 11.7727C10.4645 11.7731 10.4635 11.7733 10.4625 11.7733C10.4615 11.7732 10.4605 11.7729 10.4596 11.7724C10.4587 11.7719 10.458 11.7712 10.4574 11.7703C10.4569 11.7695 10.4565 11.7685 10.4564 11.7675L10.3792 11.4794C10.3785 11.4745 10.3802 11.4715 10.3844 11.4704L10.644 11.4008C10.625 11.3106 10.6122 11.2531 10.6055 11.2282L10.1644 11.3464C10.1634 11.3468 10.1624 11.3469 10.1614 11.3469C10.1604 11.3468 10.1594 11.3465 10.1586 11.346C10.1577 11.3455 10.1569 11.3448 10.1564 11.344C10.1558 11.3431 10.1555 11.3422 10.1553 11.3412L10.0781 11.053C10.0774 11.0482 10.0792 11.0452 10.0834 11.044Z" fill="black"/>
<path d="M18.3947 7.81529L18.4417 7.80269C18.6239 7.75386 18.8007 7.76318 18.9721 7.83065L19.1107 8.34794L19.099 8.35109C18.917 8.29488 18.7373 8.29053 18.56 8.33803C18.3787 8.38659 18.1398 8.51362 17.8431 8.71912C17.8461 8.74664 17.8221 9.27601 17.7709 10.3072L17.283 10.4379L17.2696 10.4351L17.3369 8.99334L17.2135 9.02642C17.0313 9.07524 16.8545 9.06591 16.6831 8.99842L16.5445 8.48114L16.5563 8.47796C16.7384 8.53422 16.9181 8.53858 17.0954 8.49105C17.2825 8.44091 17.5915 8.26989 18.0226 7.97798C18.1756 7.895 18.2997 7.84077 18.3947 7.81529Z" fill="black"/>
<path d="M19.0671 10.3254L19.1141 10.3128C19.2963 10.2639 19.4731 10.2733 19.6445 10.3407L19.7831 10.858L19.7713 10.8612C19.5893 10.805 19.4097 10.8006 19.2323 10.8481C19.0511 10.8967 18.8121 11.0237 18.5154 11.2292C18.5185 11.2567 18.4944 11.7861 18.4432 12.8173L17.9554 12.948L17.942 12.9451L18.0093 11.5034L17.8859 11.5365C17.7036 11.5853 17.5268 11.576 17.3554 11.5085L17.2168 10.9912L17.2287 10.988C17.4107 11.0443 17.5904 11.0486 17.7677 11.0011C17.9548 10.951 18.2639 10.78 18.695 10.4881C18.848 10.4051 18.972 10.3508 19.0671 10.3254Z" fill="black"/>
</g>
</g>
<path d="M11.4545 9.01762C11.4545 8.00438 10.2175 7.73307 9.70605 7.59034V6.841H16.4305C16.4305 9.37995 13.7382 8.04506 13.1673 9.18689C12.7111 10.0991 12.9762 11.1676 13.1665 11.3363L13.1548 11.326C12.6479 10.8794 11.4545 9.82832 11.4545 9.01762Z" fill="#101010"/>
<path d="M5.44482 11.0334C5.46175 12.2628 5.44482 14.7216 4.64483 14.7216C3.87841 14.7216 3.95263 12.1802 3.96536 11.0334" stroke="#EAA268" stroke-width="0.6" stroke-linecap="round"/>
<path d="M11.2021 20.9952C12.6411 21.1014 13.3164 20.8599 14.0501 19.5406" stroke="#694732" stroke-width="0.6" stroke-linecap="round"/>
</svg>
